<?xml version="1.0" standalone="no"?>
<!DOCTYPE svg PUBLIC "-//W3C//DTD SVG 1.1//EN" "http://www.w3.org/Graphics/SVG/1.1/DTD/svg11.dtd" >
<svg xmlns="http://www.w3.org/2000/svg">
<metadata></metadata>
<defs>
<font id="TypoLatinserif-BoldRegular" horiz-adv-x="989" >
<font-face units-per-em="2048" ascent="1638" descent="-410" />
<missing-glyph horiz-adv-x="681" />
<glyph unicode="&#xd;" horiz-adv-x="501" d="M4 25q0 -14 9.5 -24.5t23.5 -10.5h418q14 0 23 10.5t9 24.5v30q0 23 -20 33q-29 10 -62.5 23.5t-62.5 25.5v1000q0 35 -35 34h-270q-14 0 -23.5 -10t-9.5 -24v-31q0 -23 23 -33q33 -12 65.5 -25.5t65.5 -25.5v-885l-131 -49q-8 -4 -15.5 -13t-7.5 -20v-30z" />
<glyph horiz-adv-x="536" d="M-2 1397q20 -139 90 -196.5t180 -57.5q113 0 184 58.5t89 201.5l-31 33h-84q-10 0 -19.5 -7.5t-13.5 -19.5q-14 -68 -44 -89.5t-81 -21.5q-49 0 -78.5 21.5t-44.5 89.5q-4 12 -13 19.5t-19 7.5h-80q-16 0 -26.5 -12.5t-8.5 -26.5z" />
<glyph horiz-adv-x="536" d="M178 1214q0 -14 8.5 -24t24.5 -10h154q14 0 23 10t9 24v150q0 14 -9 24.5t-23 10.5h-154q-16 0 -24.5 -10.5t-8.5 -24.5v-150z" />
<glyph horiz-adv-x="536" d="M59 1298q0 -43 16.5 -80.5t45.5 -65.5t66.5 -43t80.5 -15t81 15t65.5 43t44 65.5t16.5 80.5t-16.5 81t-44 66t-65.5 44t-81 16t-80.5 -16t-66.5 -44t-45.5 -66t-16.5 -81zM199 1298q0 29 20.5 48.5t48.5 19.5q27 0 47.5 -19.5t20.5 -48.5t-19.5 -47t-48.5 -18t-49 18.5 t-20 46.5z" />
<glyph unicode="&#xa;" horiz-adv-x="536" d="M-3 1135.5q9 -17.5 30 -17.5h114q12 0 25 12l223 273q14 16 5 36.5t-32 20.5h-153q-16 0 -27 -14l-182 -275q-12 -18 -3 -35.5zM312.5 1136.5q9.5 -18.5 31.5 -18.5h113q14 0 26 12l222 273q14 16 5.5 36.5t-30.5 20.5h-154q-6 0 -15 -4t-13 -10l-183 -275 q-12 -16 -2.5 -34.5z" />
<glyph horiz-adv-x="536" d="M78 -199q0 -88 57.5 -134t147.5 -38l135 13q16 2 25.5 13.5t7.5 25.5q0 6 -2.5 23t-6.5 35.5t-14 32t-29 11.5q-16 -4 -36.5 -7t-38.5 -7q-29 2 -47.5 12t-18.5 26q0 27 18.5 57t45 58.5t55.5 53t49 40.5q18 16 11 38t-31 22h-134q-25 -18 -58.5 -49t-63 -68t-51 -78 t-21.5 -80z" />
<glyph horiz-adv-x="536" d="M-18.5 1441.5q-10.5 -18.5 4.5 -36.5l190 -272q4 -4 12.5 -9.5t16.5 -5.5h127q8 0 16 5t12 10l191 272q14 18 4 36.5t-31 18.5h-118q-8 0 -16.5 -5t-12.5 -9q-29 -39 -54.5 -78t-54.5 -80l-108 158q-4 4 -12.5 9t-16.5 5h-119q-20 0 -30.5 -18.5z" />
<glyph horiz-adv-x="317" d="M-322 4q-12 -23 0.5 -35t34 -16t43 -5t27.5 -1q23 0 31 18l825 1489q12 16 2 32.5t-27 18.5l-77 8q-23 0 -31 -18z" />
<glyph d="M10 1044q0 -14 10.5 -23t24.5 -9h123v-875l-125 -49q-20 -10 -20 -33v-30q0 -14 9 -24.5t23 -10.5h410q35 0 35 35v30q0 10 -7.5 19.5t-15.5 13.5q-31 10 -61.5 23.5t-63.5 25.5v875h324v-875l-119 -49q-20 -10 -20 -33v-30q0 -35 34 -35h377q35 0 35 35v30q0 10 -7 18.5 t-13 12.5q-29 12 -52.5 25.5t-52.5 25.5v1000q0 35 -35 34h-471q4 84 41 121t99 37q55 0 82.5 -31.5t27.5 -72.5q0 -35 35 -35h102q12 0 23.5 9t11.5 24l-2 41t-27.5 91t-86 91t-175.5 41q-152 0 -232.5 -79t-82.5 -237h-123q-35 0 -35 -34v-93z" />
<glyph d="M8 1044q0 -14 10.5 -23t24.5 -9h125v-875l-127 -51q-18 -10 -18 -31v-30q0 -14 9 -24.5t23 -10.5h412q35 0 35 35v30q0 10 -7.5 19.5t-15.5 13.5q-31 10 -63.5 22.5t-63.5 24.5v877h148q14 0 24.5 9t10.5 23v93q0 35 -35 34h-148q4 84 44 121t132 37q59 0 105 -16 q16 -4 39 -15v-1161l-115 -49q-20 -10 -20 -33v-30q0 -35 34 -35h375q35 0 35 35v30q0 10 -7 18.5t-13 12.5l-107 51v1260q0 10 -7 18t-16 12q-29 10 -58.5 20.5t-57.5 20.5l-2 -2q-18 8 -37 9q-12 0 -19 2q-35 4 -70.5 7t-76.5 3q-166 0 -251 -75t-91 -241h-125 q-35 0 -35 -34v-93z" />
<glyph horiz-adv-x="1071" d="M16 494q0 -23 19.5 -32t36.5 3q33 25 62.5 47.5t62.5 46.5v-407h-144q-35 0 -35 -35v-92q0 -35 35 -35h932q35 0 35 35v424q0 35 -35 34h-104q-35 0 -35 -34v-297h-465v550l301 226q4 4 9 12t5 16v95q0 23 -17 33t-36 -5q-72 -53 -132 -99t-130 -97v426h178q35 0 35 34 v93q0 35 -35 34h-508q-35 0 -35 -34v-93q0 -35 35 -34h146v-568l-166 -125q-4 -4 -9.5 -12t-5.5 -16v-94z" />
<glyph horiz-adv-x="473" d="M4 25q0 -35 35 -35h412q14 0 23 10t9 25v90q0 14 -9 24.5t-23 10.5h-109v636l137 111q13 13 13 27v88q0 23 -18.5 33t-35.5 -7q-23 -18 -48 -38.5t-48 -41.5v478q0 35 -35 34h-268q-35 0 -35 -34v-93q0 -14 10.5 -23t24.5 -9h119v-500l-142 -115q-6 -4 -9 -12t-3 -12v-90 q0 -23 19.5 -32t35.5 7q25 18 49.5 37.5t49.5 40.5v-485h-119q-35 0 -35 -35v-90z" />
<glyph horiz-adv-x="1132" d="M45 25q0 -35 35 -35h950q35 0 35 35v413q0 14 -10.5 23.5t-24.5 9.5h-102q-14 0 -24.5 -9t-10.5 -24v-286h-635l797 1161v123q0 35 -35 34h-909q-14 0 -23.5 -10t-9.5 -24v-400q0 -14 9 -24.5t24 -10.5h104q14 0 23.5 10.5t9.5 24.5v273h592l-795 -1159v-125z M274.5 1814.5q-10.5 -18.5 4.5 -36.5l190 -273q4 -4 12 -9t17 -5h127q8 0 16 5t12 9l191 273q14 18 4 36.5t-31 18.5h-119q-8 0 -16 -5t-12 -9q-29 -39 -54.5 -78t-54.5 -80l-108 158q-4 4 -12.5 9t-16.5 5h-119q-20 0 -30.5 -18.5z" />
<glyph horiz-adv-x="897" d="M63 25q0 -35 35 -35h701q35 0 35 35v297q0 14 -10.5 23t-24.5 9h-101q-14 0 -24 -9t-10 -23v-172h-390l551 878v109q0 35 -34 34h-224l166 234q14 18 4 36.5t-30 18.5h-119q-8 0 -16.5 -5t-12.5 -9q-29 -39 -54.5 -78t-53.5 -80l-109 158q-4 4 -12 9t-17 5h-118 q-20 0 -30.5 -18.5t3.5 -36.5l164 -234h-226q-35 0 -34 -34v-273q0 -35 34 -35h101q35 0 35 35v148h370l-549 -877v-110z" />
<glyph unicode=" "  horiz-adv-x="681" />
<glyph unicode="&#x09;" horiz-adv-x="681" />
<glyph unicode="&#xa0;" horiz-adv-x="681" />
<glyph unicode="!" horiz-adv-x="620" d="M219 27q0 -14 8.5 -24.5t24.5 -10.5h154q14 0 23 10.5t9 24.5v149q0 14 -9 24.5t-23 10.5h-154q-16 0 -24.5 -10.5t-8.5 -24.5v-149zM223 1436l19 -1084q0 -35 34 -35h93q35 0 34 35l23 1084q0 35 -35 34h-135q-16 0 -24.5 -10t-8.5 -24z" />
<glyph unicode="&#x22;" horiz-adv-x="882" d="M195 1432l6 -191l14 -237q4 -31 33 -31h88q29 0 33 31l14 235l6 193q2 33 -27.5 47t-70.5 14q-39 0 -68.5 -14.5t-27.5 -46.5zM492 1432l6 -191l14 -237q4 -31 33 -31h88q29 0 33 31l14 235l6 193q2 33 -27.5 47t-68.5 14q-41 0 -71 -14.5t-27 -46.5z" />
<glyph unicode="#" horiz-adv-x="1120" d="M25 498q0 -14 9 -24.5t23 -10.5h195l-57 -432q-2 -16 8 -28.5t26 -12.5h99q12 0 22 7t12 21q12 111 28 222.5t30 222.5h198l-57 -432q-2 -16 8.5 -28.5t24.5 -12.5h100q29 0 33 28q14 111 29.5 222.5t29.5 222.5h228q35 0 35 35v96q0 35 -35 35h-205q6 55 15.5 107 t15.5 108h225q33 0 33 33v98q0 33 -33 33h-203l58 424q2 16 -8.5 28.5t-24.5 12.5h-101q-29 0 -32 -29q-14 -111 -29.5 -218.5t-30.5 -217.5h-198l57 424q2 16 -8 28.5t-25 12.5h-100q-10 0 -20.5 -8.5t-12.5 -20.5q-14 -111 -29.5 -218.5t-29.5 -217.5h-219 q-14 0 -24.5 -9.5t-10.5 -23.5v-98q0 -14 10 -23.5t25 -9.5h198q-6 -57 -15 -109.5t-16 -105.5h-219q-14 0 -23 -10.5t-9 -24.5v-96zM442 629q6 55 15.5 107t17.5 108h199q-6 -57 -15.5 -109.5t-15.5 -105.5h-201z" />
<glyph unicode="$" horiz-adv-x="1011" d="M55 23q0 -35 35 -35h29q10 0 20.5 7t14.5 19q4 18 11 40t11 42q53 -53 119.5 -77.5t138.5 -36.5v-164q0 -35 35 -35h80q35 0 35 35v153q174 6 275.5 102.5t101.5 268.5v111q0 72 -18.5 129t-62.5 101t-116 77t-178 53h-2v479q53 -18 88 -47q41 -35 66.5 -84t25.5 -114 v-62q0 -14 8 -24.5t25 -10.5l104 -2q35 0 35 35v438q0 35 -35 35h-29q-10 0 -20 -7t-14 -19q-4 -18 -9.5 -38t-13.5 -40q-102 82 -231 108v172q0 14 -10.5 23.5t-24.5 9.5h-80q-14 0 -24.5 -9t-10.5 -24v-157q-172 -2 -273.5 -97.5t-101.5 -259.5v-102q0 -90 31 -149.5 t82 -98.5t118.5 -62.5t143.5 -39.5v-519q-72 18 -119 60q-86 76 -86 196v64q0 35 -34 35l-105 2q-35 0 -35 -35v-446zM250 1026v88q0 86 49 139.5t135 61.5v-475q-37 12 -66.5 27.5t-56.5 31.5q-61 49 -61 127zM584 635q41 -16 76.5 -31.5t52.5 -32.5q27 -23 41 -56.5 t14 -80.5v-84q0 -94 -48 -150.5t-134 -66.5q0 135 -1 251t-1 251z" />
<glyph unicode="%" horiz-adv-x="1576" d="M129 971q0 -166 63.5 -259.5t196.5 -93.5h47q133 0 197.5 92.5t64.5 260.5v153q0 166 -64.5 258.5t-195.5 92.5h-47q-133 0 -197.5 -92.5t-64.5 -258.5v-153zM285 977v145q0 211 110 211h35q113 0 113 -215v-145q0 -211 -109 -211h-37q-113 0 -112 215zM373 23 q-10 -25 4 -36.5t36.5 -16.5t44 -6t27.5 -1q8 0 19.5 5t15.5 16l678 1435q8 18 -2 33.5t-29 15.5h-6l-37 9h-39q-20 0 -30 -19zM877 322q0 -166 65.5 -258.5t196.5 -92.5h47q133 0 196.5 91.5t63.5 259.5v153q0 164 -63.5 257t-196.5 93h-47q-131 0 -196.5 -93t-65.5 -257 v-153zM1032 328v145q0 209 113 209h35q111 0 110 -213v-145q0 -209 -108 -209h-35q-115 0 -115 213z" />
<glyph unicode="&#x26;" horiz-adv-x="1427" d="M80 406q0 -72 32.5 -149t91 -140.5t139.5 -104.5t177 -41q117 0 217.5 50.5t186.5 173.5l2 4l170 -197q4 -6 12 -9t12 -3l226 2q32 0 32 35v18q0 20 -18 31q-37 16 -70 28.5t-67 28.5q-47 55 -94.5 108.5t-94.5 106.5q33 51 58 103q57 121 104 241l117 56q6 4 13 12t7 18 v25q0 14 -10 23.5t-25 9.5h-331q-14 0 -24.5 -9.5t-10.5 -23.5v-19q0 -20 16 -28q23 -12 44.5 -23.5t43.5 -21.5q-14 -31 -28.5 -62t-30.5 -61l-6 -8q-23 -41 -32 -61.5t-19 -37.5q-72 82 -136.5 157t-134.5 157q55 41 98.5 73.5t71.5 63.5q72 82 72 252q0 78 -24.5 134 t-69.5 92t-105.5 53.5t-134.5 17.5q-164 0 -254 -74t-90 -225q0 -63 12.5 -109.5t34 -85.5t52 -74.5t67.5 -78.5q4 -4 8 -13l4 -4q-80 -49 -138 -93t-91 -83q-82 -100 -82 -235zM270 408q0 86 52 147q14 16 36.5 35.5t48 38t50 36t43.5 29.5q125 -147 192.5 -221t96 -104.5 t30.5 -33.5t-2 -7q-66 -96 -137.5 -142.5t-163.5 -46.5q-41 0 -84 23.5t-79 62.5t-59.5 86t-23.5 97zM401 1178q0 76 43 109.5t115 33.5q74 0 115 -33.5t41 -105.5q0 -111 -47 -164q-16 -20 -49 -46t-78 -54q-10 10 -14.5 15t-14.5 17q-57 66 -84 113t-27 115z" />
<glyph unicode="'" horiz-adv-x="528" d="M166 1432l6 -191l14 -237q2 -16 12.5 -23.5t22.5 -7.5h86q12 0 22.5 7t12.5 24l14 235l6 193q2 33 -28.5 47t-69.5 14t-69.5 -14.5t-28.5 -46.5z" />
<glyph unicode="(" horiz-adv-x="552" d="M119 592q0 -172 25.5 -315.5t66.5 -258t95 -201.5t110 -147q10 -12 27.5 -10t34 10t30.5 16.5t18 12.5q16 8 19.5 23.5t-6.5 27.5q-47 53 -90 134t-78 186.5t-55.5 236.5t-20.5 285q0 156 20.5 287t55.5 236.5t78 186t90 134.5q10 12 8 27.5t-19 23.5q-4 2 -18 12 t-30.5 17.5t-34 9.5t-29.5 -10q-55 -59 -108.5 -146.5t-95.5 -203t-67.5 -259t-25.5 -315.5z" />
<glyph unicode=")" horiz-adv-x="552" d="M6 -277.5q2 -15.5 19 -23.5q10 -6 23 -14.5t28.5 -15.5t31 -9t27.5 8q57 61 111.5 148.5t96.5 202t66.5 258t24.5 315.5t-24.5 315.5t-66.5 259t-95 202.5t-111 147q-8 8 -20.5 11t-22.5 -3q-6 -4 -25.5 -11.5t-36 -18.5t-25.5 -25.5t7 -32.5q47 -53 91.5 -134t78 -187.5 t54 -238t20.5 -284.5q0 -154 -20.5 -285t-54 -236.5t-78 -186.5t-91.5 -134q-10 -12 -8 -27.5z" />
<glyph unicode="*" horiz-adv-x="765" d="M49 981l51 -88q6 -16 22.5 -18.5t29.5 6.5q39 27 78.5 52t80.5 52l-12 -188q-2 -14 8 -25.5t27 -11.5h98q16 0 25.5 11t9.5 26q-4 49 -6 94t-6 94l159 -104q12 -8 28.5 -6t23.5 18q2 2 14 20.5t23.5 41t13.5 43t-19 30.5q-43 23 -85 43.5t-85 40.5l170 86q14 6 18.5 19.5 t0.5 25.5l-51 90q-6 16 -23.5 17.5t-28.5 -4.5q-39 -27 -78.5 -52.5t-80.5 -52.5l12 189q2 14 -8 25t-27 11h-98q-16 0 -25.5 -11t-9.5 -25q4 -51 6 -96.5t6 -92.5l-161 105q-10 6 -27 5t-23 -18l-51 -90q-4 -12 0 -25.5t19 -19.5q43 -23 85 -43t85 -43l-170 -84 q-14 -6 -18.5 -20.5t-0.5 -26.5z" />
<glyph unicode="+" horiz-adv-x="1267" d="M78 494q0 -35 35 -35h432v-434q0 -35 35 -35h110q35 0 35 35v434h430q35 0 35 35v110q0 16 -10.5 24.5t-24.5 8.5h-430v430q0 35 -35 35h-110q-35 0 -35 -35v-430h-432q-14 0 -24.5 -8t-10.5 -25v-110z" />
<glyph unicode="," horiz-adv-x="475" d="M80 -236q-6 -18 4 -31.5t29 -13.5h92q23 0 33 21l104 266q4 4 7 11.5t3 11.5v147q0 35 -35 35h-71q-16 0 -34.5 -1t-37.5 -1q-35 0 -35 -35v-145q0 -29 27 -35z" />
<glyph unicode="-" horiz-adv-x="724" d="M74 623q0 -35 35 -35h485q35 0 35 35v94q0 35 -35 35h-485q-35 0 -35 -35v-94z" />
<glyph unicode="." horiz-adv-x="475" d="M59 0q0 -14 8.5 -24.5t24.5 -10.5h152q16 0 24 10.5t8 24.5v150q0 14 -8 24t-24 10h-152q-16 0 -24.5 -10t-8.5 -24v-150z" />
<glyph unicode="/" horiz-adv-x="745" d="M14 27q-6 -16 2.5 -30.5t28.5 -16.5l102 -11q10 0 19.5 7.5t13.5 15.5l555 1429q6 16 -2 30.5t-28 16.5l-103 9q-10 2 -19.5 -5.5t-13.5 -15.5z" />
<glyph unicode="0" horiz-adv-x="1024" d="M68 610q0 -147 24.5 -266t73.5 -202t126 -127t181 -44h74q104 0 181 44t128 127t75.5 202t24.5 266v228q0 147 -24.5 265t-74.5 200.5t-127 127t-181 44.5h-74q-104 0 -181 -44.5t-127 -127t-74.5 -200.5t-24.5 -265v-228zM256 610v228q0 233 54.5 356t170.5 123h58 q119 0 174 -123t55 -356v-228q0 -233 -55.5 -356t-171.5 -123h-58q-119 0 -173 123t-54 356z" />
<glyph unicode="1" horiz-adv-x="1024" d="M193 1143l30 -76q16 -39 51 -14q53 41 104.5 77.5t100.5 83.5v-1075l-168 -51q-23 -8 -22 -33v-30q0 -14 9 -24.5t24 -10.5h493q35 0 35 35v30q0 10 -7 19.5t-18 13.5q-41 10 -80.5 23.5t-80.5 27.5v1286q0 35 -35 35h-111q-4 0 -13 -3t-13 -9q-74 -78 -145 -143.5 t-142 -122.5q-20 -12 -12 -39z" />
<glyph unicode="2" horiz-adv-x="1024" d="M76 25q0 -35 35 -35h804q35 0 35 35v325q0 35 -35 35h-51q-10 0 -20 -7t-15 -20q-10 -51 -24 -100t-29 -98h-522q53 80 107.5 148.5t125.5 137.5v3q14 18 33 32v-2q78 74 150.5 146.5t129 141.5t90.5 133.5t34 119.5v94q0 170 -97.5 265.5t-273.5 95.5h-64 q-180 0 -285.5 -111t-105.5 -303v-43q0 -14 9.5 -24.5t23.5 -10.5h113q35 0 35 35v45q0 117 55 181.5t153 64.5h64q88 0 137 -51.5t49 -147.5v-66q0 -43 -29.5 -96t-81 -113.5t-120 -128t-146.5 -141.5q-86 -82 -152.5 -166t-131.5 -188v-186z" />
<glyph unicode="3" horiz-adv-x="1024" d="M84 375q0 -197 98.5 -300.5t284.5 -103.5h86q176 0 277.5 104.5t101.5 284.5v80q0 74 -20.5 130.5t-54.5 96.5t-78 64.5t-91 38.5q49 33 92 77t74 91t48.5 96t17.5 92v39q0 70 -31 126.5t-86 97.5t-131 63.5t-164 22.5q-86 0 -161 -22.5t-130 -64.5t-87 -102.5 t-32 -134.5v-109q0 -14 9.5 -24t23.5 -10h117q35 0 35 34v76q0 86 63.5 138.5t165.5 52.5q100 0 161.5 -51.5t61.5 -122.5q0 -45 -24.5 -93.5t-66.5 -93.5t-99.5 -79.5t-124.5 -51.5q-12 -2 -18.5 -12t-6.5 -21v-96q0 -33 33 -33h66q250 0 249 -206v-89q0 -106 -53 -163.5 t-145 -57.5h-74q-92 0 -145.5 62.5t-53.5 175.5v31q0 14 -9 24t-23 10h-121q-35 0 -35 -34v-33z" />
<glyph unicode="4" horiz-adv-x="1024" d="M31 418q0 -14 9 -24.5t23 -10.5h562v-246l-133 -49q-8 -4 -15.5 -13t-7.5 -20v-30q0 -35 35 -35h395q35 0 35 35v30q0 10 -7 18.5t-14 12.5l-106 51v246h141q14 0 23.5 10.5t9.5 24.5v90q0 14 -9 24.5t-24 10.5h-141v880q0 14 -9.5 24.5t-23.5 10.5h-149q-20 0 -29 -16 l-565 -887v-137zM217 543q109 170 206 324.5t202 322.5v-647h-408z" />
<glyph unicode="5" horiz-adv-x="1024" d="M98 360q0 -197 105.5 -293t310.5 -96q440 0 440 457v90q0 205 -99 313.5t-288 108.5q-72 0 -140.5 -17.5t-123.5 -58.5q2 59 4 110.5t5 100.5t5 100.5t5 110.5h552q35 0 35 35l2 102q0 35 -34 35h-701q-14 0 -24.5 -10t-10.5 -25l-18 -778q0 -33 33 -33h77q6 0 15.5 3 t13.5 10q47 74 123 110.5t174 36.5q104 0 159.5 -67.5t55.5 -192.5v-94q0 -279 -254 -279q-117 0 -179 55.5t-62 165.5v29q0 14 -9.5 24.5t-23.5 10.5h-113q-35 0 -35 -35v-29z" />
<glyph unicode="6" horiz-adv-x="1024" d="M80 532q0 -295 102.5 -428t292.5 -133h82q90 0 164 31t125 88t78.5 136t27.5 177v105q0 195 -108.5 301t-308.5 106q-131 0 -234 -65q-10 -8 -21.5 -18.5t-21.5 -22.5q10 248 81 376t218 132q109 2 156 -49t47 -162v-23q0 -14 9 -24t24 -10h112q35 0 35 34v31 q0 188 -98.5 274.5t-282.5 86.5q-123 0 -213 -47.5t-149.5 -136.5t-88 -218t-28.5 -291v-250zM252 444q0 59 17.5 121t54.5 105q35 41 87 63.5t111 22.5q119 0 184.5 -69t65.5 -195v-93q0 -125 -58.5 -196.5t-160.5 -71.5h-68q-61 0 -106 28.5t-72.5 75t-41 101.5t-13.5 108 z" />
<glyph unicode="7" horiz-adv-x="1024" d="M68 1061q0 -16 10 -24.5t24 -8.5h50q10 0 20 6t14 19q12 59 25.5 117.5t28.5 117.5h514q-80 -178 -143.5 -325.5t-122 -291t-118 -297t-128.5 -339.5q-6 -16 3 -30.5t29 -14.5h125q20 0 33 22q63 180 123.5 336t122 307.5t129 308t149.5 341.5l2 14v104q0 35 -34 35h-822 q-35 0 -34 -35v-362z" />
<glyph unicode="8" horiz-adv-x="1024" d="M86 358q0 -180 101.5 -283.5t279.5 -103.5h94q176 0 277.5 106t101.5 290v75q0 104 -46 187.5t-138 124.5q86 47 131 128t45 179v59q0 166 -102.5 260.5t-280.5 94.5h-68q-174 0 -275.5 -93.5t-101.5 -265.5v-59q0 -90 39 -171t131 -130q-92 -39 -140 -122t-48 -200v-76z M266 367v75q0 111 58.5 172.5t162.5 61.5h60q98 0 155.5 -60.5t57.5 -171.5v-75q0 -117 -55.5 -177.5t-153.5 -60.5h-74q-102 0 -156.5 59.5t-54.5 176.5zM285 1053v55q0 100 52 154.5t144 54.5h70q94 0 147.5 -54.5t53.5 -152.5v-55q0 -104 -55.5 -162.5t-153.5 -58.5h-54 q-92 0 -148 59t-56 160z" />
<glyph unicode="9" horiz-adv-x="1024" d="M80 940q0 -197 108.5 -302.5t309.5 -105.5q70 0 148.5 24t125.5 79q-10 -246 -79.5 -373t-217.5 -131q-109 -2 -156 49t-47 162v23q0 14 -9 24t-23 10h-113q-35 0 -35 -34v-33q0 -186 98.5 -273.5t282.5 -87.5q123 0 213 48.5t149.5 137.5t88 218t28.5 291v249 q0 295 -102 427.5t-293 132.5h-82q-90 0 -163.5 -31t-125 -87.5t-79 -135t-27.5 -177.5v-104zM260 956v91q0 127 58.5 198.5t160.5 71.5h68q102 0 164 -82q35 -49 52 -108.5t17 -122.5q0 -59 -17.5 -121t-53.5 -105q-35 -41 -87.5 -63.5t-111.5 -22.5q-119 0 -184.5 68.5 t-65.5 195.5z" />
<glyph unicode=":" horiz-adv-x="499" d="M137 27q0 -14 8.5 -24.5t24.5 -10.5h154q14 0 23 10.5t9 24.5v149q0 14 -9 24.5t-23 10.5h-154q-16 0 -24.5 -10.5t-8.5 -24.5v-149zM137 817q0 -12 8.5 -22.5t24.5 -10.5h154q32 0 32 33v152q0 16 -10 24t-22 8h-154q-33 0 -33 -32v-152z" />
<glyph unicode=";" horiz-adv-x="499" d="M102 -236q-6 -18 4.5 -31.5t28.5 -13.5h92q8 0 18.5 5.5t14.5 15.5l115 330v106q0 35 -35 35h-170q-16 0 -24.5 -10.5t-8.5 -24.5v-149q0 -14 8.5 -24.5t24.5 -10.5h16zM137 817q0 -12 8.5 -22.5t24.5 -10.5h154q32 0 32 33v152q0 16 -10 24t-22 8h-154q-33 0 -33 -32 v-152z" />
<glyph unicode="&#x3c;" horiz-adv-x="1267" d="M53 489q0 -20 19 -30l1093 -518q20 -10 33.5 2t13.5 28v115q0 18 -18 29l-903 430l903 428q18 10 18 31v112q0 18 -13 30.5t-34 2.5l-1093 -518q-18 -10 -19 -31v-111z" />
<glyph unicode="=" horiz-adv-x="1267" d="M55 301q0 -14 8.5 -24.5t24.5 -10.5h1094q16 0 24 10.5t8 24.5v111q0 14 -8 24t-24 10h-1094q-16 0 -24.5 -10t-8.5 -24v-111zM55 678q0 -14 8.5 -24.5t24.5 -10.5h1094q16 0 24 10.5t8 24.5v110q0 33 -32 33h-1094q-33 0 -33 -33v-110z" />
<glyph unicode="&#x3e;" horiz-adv-x="1267" d="M53 -29q0 -16 13.5 -28.5t33.5 -1.5l1094 518q18 10 18 30v111q0 20 -18 31l-1094 518q-20 10 -33.5 -2t-13.5 -31v-112q0 -20 19 -31q227 -106 451.5 -214t451.5 -214l-903 -430q-18 -10 -19 -29v-115z" />
<glyph unicode="?" d="M100 1090q0 -35 35 -35h119q35 0 35 35v40q0 197 205 197q106 0 159.5 -48t53.5 -134v-101q0 -90 -46.5 -149t-123.5 -115q-98 -57 -148.5 -116.5t-50.5 -145.5v-168q0 -16 10 -24.5t25 -8.5h119q14 0 24 8.5t10 24.5v133q0 55 40 99.5t126 97.5q94 57 149.5 138 t55.5 216v127q0 145 -96 235.5t-301 90.5q-211 0 -305.5 -91t-94.5 -249v-57zM324 23q0 -14 9 -24.5t23 -10.5h154q16 0 24.5 10.5t8.5 24.5v149q0 14 -8.5 24.5t-24.5 10.5h-154q-14 0 -23 -10.5t-9 -24.5v-149z" />
<glyph unicode="@" horiz-adv-x="1693" d="M76 563q0 -162 57 -301t165 -242.5t260.5 -162t342.5 -58.5l-37 37q4 4 13.5 10.5t13.5 10.5q10 6 14 16t3 20.5t-9 18.5t-22 8q-123 0 -237 47t-202 131t-141 200t-53 253q0 135 51 252t139 204t205 136t246 49q121 0 224 -40t179 -108.5t119 -157.5t43 -188 q0 -94 -27.5 -177t-70.5 -145.5t-92.5 -98t-92.5 -35.5q-23 0 -37 14q-6 6 -6 23q0 10 1 17t5 21l181 627q4 16 -6.5 29.5t-26.5 13.5h-117q-10 0 -20.5 -7t-14.5 -19q-2 -10 -4 -18.5t-6 -18.5q-35 57 -88 79.5t-104 22.5q-113 0 -206 -53t-161 -136t-105.5 -186.5 t-37.5 -204.5q0 -90 24.5 -157.5t67.5 -113.5t99.5 -69.5t121.5 -23.5q33 0 66.5 10t66.5 26.5t60.5 37t50.5 41.5q27 -63 68.5 -90t82.5 -27q90 0 178.5 49t159 133t113.5 194.5t43 235.5q0 131 -55.5 251t-153.5 210t-233.5 143.5t-294.5 53.5q-168 0 -314.5 -64.5 t-255 -174.5t-171 -252t-62.5 -296zM596 416q0 80 24.5 161.5t67.5 147.5t101.5 106.5t123.5 40.5q59 0 93 -49t34 -139q0 -53 -20.5 -129t-59 -145.5t-95 -118.5t-126.5 -49q-53 0 -98 41t-45 133z" />
<glyph unicode="A" horiz-adv-x="1411" d="M14 25q0 -35 35 -35h432q16 0 24.5 10t8.5 25v32q0 10 -6 19.5t-16 13.5q-35 10 -75 23.5t-77 23.5q33 96 60.5 180t58.5 179h495q29 -90 59.5 -179.5t61.5 -179.5l-153 -47q-23 -6 -23 -33v-32q0 -14 8 -24.5t25 -10.5h434q35 0 35 35v32q0 10 -7.5 18.5t-13.5 12.5 q-29 14 -57.5 26.5t-56.5 28.5l-441 1305q-4 8 -12 15t-18 7h-168q-10 0 -18.5 -7t-12.5 -15q-111 -330 -223.5 -654.5t-225.5 -650.5l-112 -55q-6 -4 -13.5 -12t-7.5 -19v-32zM512 655q51 154 98 296.5t99 291.5l194 -588h-391z" />
<glyph unicode="B" horiz-adv-x="1165" d="M35 25q0 -35 35 -35h661q86 0 158 27.5t123 76.5t79.5 117.5t28.5 150.5v99q0 102 -42 189t-134 128q78 41 113 118t35 177v76q0 176 -94.5 248.5t-284.5 72.5h-643q-35 0 -35 -34v-33q0 -25 22 -33q39 -12 79 -25.5t79 -25.5v-1178l-158 -51q-8 -4 -15 -13t-7 -20v-32z M399 152v536h299q115 0 173.5 -60.5t58.5 -170.5v-78q0 -115 -64.5 -171t-187.5 -56h-279zM399 850v459h320q86 0 132 -43t46 -136v-71q0 -100 -54.5 -154.5t-156.5 -54.5h-287z" />
<glyph unicode="C" horiz-adv-x="1257" d="M88 600q0 -143 38 -260t108.5 -199t171 -126t227.5 -44q211 0 355.5 96t197.5 289v105q0 35 -35 35h-121q-14 0 -23.5 -10.5t-9.5 -24.5v-58q-37 -129 -130 -195.5t-226 -66.5q-172 0 -266 123t-94 340v256q0 217 94 338t268 121q61 0 118.5 -19.5t105.5 -56.5t85 -89 t56 -116v-57q0 -14 8 -24.5t24 -10.5h105q14 0 23.5 10.5t9.5 24.5v455q0 14 -9.5 24t-23.5 10h-51q-12 0 -21.5 -9t-11.5 -21q-4 -25 -6 -44.5t-6 -41.5q-133 133 -412 133q-129 0 -231.5 -44t-173 -125t-107.5 -195.5t-37 -258.5v-264z" />
<glyph unicode="D" horiz-adv-x="1308" d="M23 25q0 -14 9 -24.5t23 -10.5h553q303 0 456 155.5t153 460.5v254q0 291 -151 450.5t-431 159.5h-580q-14 0 -23 -10t-9 -24v-33q0 -25 22 -33q39 -12 78 -25.5t78 -25.5v-1176l-156 -53q-8 -4 -15 -13t-7 -20v-32zM383 152v1157h238q193 0 298 -117t105 -326v-260 q0 -219 -108.5 -336.5t-315.5 -117.5h-217z" />
<glyph unicode="E" horiz-adv-x="1140" d="M33 25q0 -14 9 -24.5t24 -10.5h997q14 0 23.5 10.5t9.5 24.5v413q0 33 -33 33h-47q-10 0 -20.5 -8t-12.5 -19q-14 -76 -27.5 -147.5t-25.5 -144.5h-535v514h312l53 -156q4 -6 11 -13.5t20 -7.5h30q12 0 22.5 8.5t10.5 24.5v439q0 14 -9 24t-24 10h-30q-23 0 -31 -22 l-53 -148q-78 0 -156 1t-156 1v482h529l53 -277q4 -10 14 -19t21 -9h43q16 0 24 10t8 24v398q0 14 -8 24t-24 10h-989q-14 0 -23.5 -10t-9.5 -24v-33q0 -25 20 -33q41 -12 80 -25.5t78 -25.5v-1176l-158 -53q-20 -8 -20 -33v-32z" />
<glyph unicode="F" horiz-adv-x="1071" d="M20 25q0 -35 35 -35h508q14 0 23.5 10t9.5 25v32q0 10 -7 20.5t-20 14.5q-45 10 -91 23.5t-93 27.5v500q82 0 152.5 -1t150.5 -1l51 -141q4 -10 13.5 -17.5t19.5 -7.5h29q14 0 24.5 9.5t10.5 23.5v432q0 35 -35 35h-29q-10 0 -19.5 -7t-13.5 -18q-10 -35 -24.5 -71.5 t-28.5 -73.5q-76 0 -151.5 1t-149.5 1v502h494l53 -285q2 -10 13 -19.5t22 -9.5h43q34 0 34 35v406q0 34 -32 34h-2h-955q-35 0 -35 -34v-33q0 -25 23 -33q39 -12 78 -25.5t78 -25.5v-1176l-156 -53q-8 -4 -15.5 -13t-7.5 -20v-32z" />
<glyph unicode="G" horiz-adv-x="1320" d="M47 600q0 -143 37 -260t106.5 -199t170 -126t225.5 -44q129 0 244.5 41t195.5 113l25 -107q4 -10 13 -19t21 -9h37q35 0 35 35v596l98 51q4 4 11.5 11t7.5 17v35q0 14 -10.5 23.5t-24.5 9.5h-477q-33 0 -33 -33v-33q0 -27 25 -32q55 -14 110.5 -26.5t110.5 -25.5v-192 q-25 -131 -123 -208t-254 -77q-168 0 -263 121t-95 334v268q0 213 94 334t260 121q147 0 245.5 -70.5t135.5 -199.5v-68q0 -14 8 -24.5t25 -10.5h106q35 0 35 35v455q0 35 -35 34h-29q-10 0 -20 -7t-14 -19q-4 -23 -10.5 -48.5t-14.5 -47.5q-72 63 -181.5 101t-246.5 38 q-131 0 -233.5 -43t-173 -125t-107.5 -197.5t-37 -261.5v-260z" />
<glyph unicode="H" horiz-adv-x="1423" d="M45 25q0 -35 35 -35h471q14 0 23.5 10t9.5 25v32q0 25 -23 33q-41 12 -78 25.5t-77 27.5v512q156 0 305 1t303 1v-514l-158 -53q-20 -8 -20 -33v-32q0 -14 9 -24.5t23 -10.5h471q35 0 35 35v32q0 10 -6 19.5t-16 13.5l-154 51v1178l154 51q8 4 15 13.5t7 19.5v33 q0 34 -33 34h-2h-471q-14 0 -23 -10t-9 -24v-33q0 -25 20 -33q41 -12 80 -25.5t78 -25.5v-496h-608v496l157 51q20 8 21 33v33q0 14 -9.5 24t-23.5 10h-471q-35 0 -35 -34v-33q0 -10 6 -19.5t17 -13.5l153 -51v-1178l-153 -51q-10 -4 -16.5 -13t-6.5 -20v-32z" />
<glyph unicode="I" horiz-adv-x="567" d="M14 25q0 -35 35 -35h471q35 0 35 35v32q0 10 -7 19.5t-18 13.5q-39 10 -75.5 24.5t-77.5 28.5v1176l155 51q8 4 15.5 13.5t7.5 19.5v33q0 34 -33 34h-2h-471q-35 0 -35 -34v-33q0 -25 23 -33q39 -12 78 -25.5t78 -25.5v-1176l-156 -53q-8 -4 -15.5 -13t-7.5 -20v-32z" />
<glyph unicode="J" horiz-adv-x="821" d="M16 285q0 -152 85 -233t239 -81q174 0 258 92.5t84 270.5v989l121 47q10 4 14 14.5t4 18.5v33q0 14 -8 24t-25 10h-436q-35 0 -35 -34v-33q0 -25 23 -33q39 -12 78 -25.5t80 -25.5v-967q0 -111 -38 -161t-122 -50q-86 0 -147.5 46t-61.5 135v51q0 20 -17.5 29.5 t-35.5 -3.5l-47 -32q-6 -4 -9.5 -13.5t-3.5 -15.5v-53z" />
<glyph unicode="K" horiz-adv-x="1200" d="M25 25q0 -14 8 -24.5t24 -10.5h471q35 0 35 35v32q0 10 -7 19.5t-17 13.5q-39 10 -76 24.5t-78 28.5v525l10 -11q129 -129 232.5 -263t212.5 -263l-101 -41q-20 -10 -20 -33v-32q0 -35 35 -35h403q16 0 24.5 10.5t8.5 24.5v32q0 8 -5 16.5t-9 12.5q-29 12 -53.5 26.5 t-51.5 28.5q-135 160 -266 315.5t-266 315.5l196 195q111 111 191 196.5t133 153.5q8 4 27.5 13t39 20.5t35 25t15.5 27.5v33q0 34 -33 34h-2h-404q-35 0 -35 -34v-33q0 -23 23 -33q55 -23 117 -41q-23 -27 -80 -85t-164 -169q-70 -72 -124 -128t-89 -93v465l156 51 q8 4 15 13.5t7 19.5v33q0 34 -33 34h-2h-471q-16 0 -24 -10t-8 -24v-33q0 -23 20 -33q39 -12 78 -25.5t80 -25.5v-1176l-158 -53q-20 -6 -20 -33v-32z" />
<glyph unicode="L" horiz-adv-x="1079" d="M33 25q0 -35 35 -35h933q35 0 35 35v424q0 35 -35 34h-45q-10 0 -21 -9t-13 -19q-12 -78 -25.5 -152t-28.5 -151h-473v1165l187 51q12 4 19 14.5t7 20.5v33q0 34 -33 34h-2h-505q-35 0 -35 -34v-33q0 -25 22 -33q39 -12 78 -25.5t78 -25.5v-1176l-156 -53q-8 -4 -15 -13 t-7 -20v-32z" />
<glyph unicode="M" horiz-adv-x="1751" d="M53 1403q0 -23 21 -33q39 -12 80 -25.5t82 -25.5v-1178l-160 -51q-20 -6 -21 -33v-32q0 -14 8.5 -24.5t24.5 -10.5h459q35 0 35 35v32q0 10 -6.5 19.5t-16.5 13.5q-35 10 -71.5 23.5t-71.5 25.5v1010l377 -1036q4 -10 13 -17.5t19 -7.5h101q20 0 32 23q92 262 186.5 519 t190.5 519v-1008l-141 -51q-8 -4 -15.5 -13t-7.5 -20v-32q0 -14 9.5 -24.5t23.5 -10.5h459q16 0 24.5 10.5t8.5 24.5v32q0 27 -23 33q-37 10 -77 23.5t-80 27.5v1178l159 51q20 6 21 33v33q0 14 -8.5 24t-24.5 10h-369q-23 0 -32 -22q-96 -268 -191.5 -532.5t-193.5 -532.5 l-383 1063q-10 24 -31 24h-2h-375q-16 0 -24.5 -10t-8.5 -24v-33z" />
<glyph unicode="N" horiz-adv-x="1445" d="M45 25q0 -35 35 -35h471q16 0 24.5 10t8.5 25v32q0 27 -23 33q-37 10 -78 23.5t-80 27.5v1039l615 -1174q12 -16 31 -16h153q35 0 35 35v1296l137 49q8 4 15.5 13.5t7.5 19.5v33q0 34 -33 34h-2h-451q-35 0 -34 -34v-33q0 -25 22 -33q39 -12 79 -25.5t79 -25.5v-1006 q-37 72 -69 134.5t-63.5 122t-64.5 120t-69 127.5q-84 154 -166 311.5t-164 323.5q-4 4 -12.5 11t-18.5 7h-350q-35 0 -35 -34v-33q0 -25 23 -33q39 -12 77.5 -25.5t77.5 -25.5v-1176l-155 -53q-8 -4 -15.5 -13t-7.5 -20v-32z" />
<glyph unicode="O" horiz-adv-x="1280" d="M47 606q0 -147 37 -264t107.5 -200t172 -127t232.5 -44h86q131 0 233.5 44t173 127t107.5 200t37 264v248q0 145 -37 263t-107.5 200t-173 126t-233.5 44h-86q-131 0 -232.5 -44t-172 -126t-107.5 -200t-37 -263v-248zM240 610v240q0 229 93 353t271 124h70 q180 0 273 -124t93 -353v-240q0 -229 -93 -353t-273 -124h-70q-178 0 -271 124t-93 353z" />
<glyph unicode="P" horiz-adv-x="1083" d="M23 25q0 -14 8 -24.5t24 -10.5h502q16 0 24.5 10t8.5 25v32q0 10 -7.5 20.5t-17.5 14.5q-47 10 -91 24.5t-91 28.5v465h143q100 0 196.5 23.5t171.5 72t121 120t46 169.5v95q0 190 -103.5 285t-306.5 95h-596q-16 0 -24 -10t-8 -24v-33q0 -23 20 -33q39 -12 78 -25.5 t80 -25.5v-1176l-158 -53q-20 -6 -20 -33v-32zM383 770v539h238q133 0 191 -54.5t58 -173.5v-82q0 -55 -31.5 -98t-84 -72.5t-118 -44t-130.5 -14.5h-123z" />
<glyph unicode="Q" horiz-adv-x="1363" d="M90 606q0 -147 37 -264t107.5 -200t172 -127t232.5 -44h86q47 0 88 6l270 -264h70q20 0 31.5 16.5t-2.5 37.5l-185 272l-6 4q0 -2 1 -1l1 1q-8 4 -10 4l4 -18q141 72 215 219t74 358v248q0 145 -37 263t-107.5 200t-173 126t-233.5 44h-86q-131 0 -232.5 -44t-172 -126 t-107.5 -200t-37 -263v-248zM283 610v240q0 229 93 353t271 124h70q180 0 273 -124t93 -353v-240q0 -229 -93 -353t-273 -124h-70q-178 0 -271 124t-93 353z" />
<glyph unicode="R" horiz-adv-x="1284" d="M39 25q0 -14 9 -24.5t24 -10.5h475q14 0 23.5 10t9.5 25v32q0 10 -7.5 19.5t-17.5 13.5q-39 10 -76 24.5t-78 28.5v504h232q106 0 151 -51t64 -147q8 -41 15 -77t14 -67q16 -92 25 -144t16 -81q4 -29 7 -39t9 -21q0 -2 1 -3t1 -5q8 -22 29 -22h2h237q14 0 23.5 10.5 t9.5 24.5v32q0 23 -20 33q-29 12 -60 24.5t-63 26.5l-68 363q-14 70 -38.5 127t-86.5 90q86 47 131 138t45 198v88q0 94 -23.5 157.5t-71.5 100.5t-121 52t-169 15h-620q-14 0 -23.5 -10t-9.5 -24v-33q0 -25 22 -33q39 -12 78 -25.5t78 -25.5v-1176l-156 -53q-8 -4 -15 -13 t-7 -20v-32zM401 809v500h250q123 0 178.5 -34t55.5 -140v-76q0 -106 -57.5 -178t-168.5 -72h-258z" />
<glyph unicode="S" horiz-adv-x="985" d="M35 23q0 -35 35 -35h28q10 0 20.5 7t14.5 19q4 23 10.5 42.5t12.5 41.5q72 -72 170 -99.5t233 -27.5q178 0 280.5 98.5t102.5 274.5v111q0 111 -38 177t-99.5 107t-136 59.5t-146.5 32.5q-57 10 -110.5 23.5t-93 35t-63.5 56.5t-24 90v86q0 94 55.5 149.5t153.5 55.5 q141 0 223 -69.5t82 -198.5v-66q0 -14 10.5 -23t24.5 -9l105 -3q35 0 35 33v445q0 35 -35 34h-29q-10 0 -20.5 -7t-14.5 -19q-4 -18 -9 -38t-11 -38q-72 59 -171.5 89t-209.5 30q-172 0 -275.5 -96.5t-103.5 -262.5v-102q0 -104 36 -168.5t95 -103.5q59 -37 133 -55.5 t141 -32.5q59 -12 113.5 -26.5t96.5 -39.5t68 -63.5t26 -100.5v-84q0 -104 -55.5 -161.5t-159.5 -57.5q-147 0 -235.5 73t-88.5 200v63q0 35 -35 35l-106 2q-35 0 -35 -35v-448z" />
<glyph unicode="T" horiz-adv-x="1085" d="M-10 999q0 -16 10 -24t25 -8h43q10 0 21 7t13 19q12 78 25.5 154t28.5 153h293v-1157l-191 -51q-12 -4 -19.5 -14t-7.5 -21v-32q0 -35 35 -35h551q35 0 35 35v32q0 10 -7 20.5t-20 14.5q-47 10 -95 23.5t-95 27.5v1157h291l53 -307q2 -12 12 -19t23 -7h43q14 0 24.5 8 t10.5 24v437q0 34 -33 34h-2h-1032q-35 0 -35 -34v-437z" />
<glyph unicode="U" horiz-adv-x="1374" d="M47 1403q0 -8 4 -18.5t15 -14.5q29 -10 62.5 -24.5t61.5 -24.5v-872q0 -236 115 -357t338 -121h86q219 0 337 123t118 352v877l123 47q10 4 14 14.5t4 18.5v33q0 14 -8 24t-25 10h-452q-14 0 -23.5 -10t-9.5 -24v-33q0 -10 7 -19.5t17 -13.5q41 -12 83 -25.5t85 -25.5 v-870q0 -315 -282 -316h-66q-135 0 -205.5 80t-70.5 233v871l168 53q8 4 15 13.5t7 19.5v33q0 14 -9 24t-24 10h-452q-16 0 -24.5 -10t-8.5 -24v-33z" />
<glyph unicode="V" horiz-adv-x="1443" d="M47 1403q0 -10 7 -18.5t12 -12.5q29 -16 58.5 -28.5t57.5 -26.5l434 -1305q4 -8 11.5 -15t19.5 -7h148q12 0 19 7t11 15q109 328 217.5 652.5t217.5 652.5l114 55q6 4 13.5 12.5t7.5 18.5v33q0 34 -33 34h-2h-445q-35 0 -34 -34v-33q0 -27 24 -33q41 -12 82 -24.5 t82 -22.5q-90 -276 -175 -537.5t-173 -535.5q-45 141 -88 273t-84 263.5t-84 262.5t-88 272l160 49q8 4 15 13.5t7 19.5v33q0 34 -33 34h-2h-442q-35 0 -35 -34v-33z" />
<glyph unicode="W" horiz-adv-x="1789" d="M-4 1403q0 -18 16 -31q27 -14 51.5 -27.5t53.5 -25.5l276 -1301q4 -10 13.5 -19t21.5 -9h160q10 0 20 7t15 19q66 289 134 576t136 577l268 -1153q4 -12 14.5 -19t20.5 -7h158q10 0 20 9t15 19q70 328 140 649.5t138 651.5l102 53q4 4 11.5 12.5t7.5 18.5v33 q0 14 -9.5 24t-23.5 10h-422q-35 0 -35 -34v-33q0 -10 7.5 -19.5t15.5 -13.5q41 -12 81 -25.5t81 -23.5q-53 -256 -105.5 -506t-103.5 -504l-264 1133q-4 10 -13.5 18t-19.5 8h-170q-10 0 -19.5 -8t-13.5 -18q-66 -287 -131 -566.5t-133 -566.5q-27 137 -52.5 260t-50 243 t-50 244t-54.5 263l164 49q10 4 18.5 12.5t8.5 20.5v33q0 34 -33 34h-2h-430q-14 0 -23.5 -10t-9.5 -24v-33z" />
<glyph unicode="X" horiz-adv-x="1308" d="M-10 25q0 -14 9 -24.5t24 -10.5h452q16 0 24.5 10t8.5 25v32q0 27 -23 33q-37 10 -73.5 21.5t-77.5 23.5q80 119 154.5 232.5t150.5 232.5q82 -125 151.5 -233.5t151.5 -231.5l-149 -45q-23 -6 -23 -33v-32q0 -14 9 -24.5t24 -10.5h461q14 0 23 10.5t9 24.5v32 q0 23 -20 33q-29 12 -59.5 25.5t-61.5 27.5q-102 158 -201.5 307.5t-201.5 307.5q94 145 183 280.5t183 278.5l131 53q20 10 21 33v33q0 34 -33 34h-2h-432q-14 0 -23.5 -10t-9.5 -24v-33q0 -10 6 -19.5t15 -13.5q33 -10 65.5 -22.5t63.5 -22.5q-68 -104 -135.5 -204.5 t-135.5 -202.5q-72 109 -134 204t-132 203l125 45q10 4 17 13.5t7 19.5v33q0 34 -32 34h-2h-445q-35 0 -35 -34v-33q0 -23 21 -33q31 -14 64.5 -26.5t66.5 -26.5q92 -141 183 -280.5t184 -280.5q-104 -154 -201.5 -303.5t-200.5 -302.5l-117 -62l-8 -4q-20 -10 -20 -29v-30z " />
<glyph unicode="Y" horiz-adv-x="1224" d="M-10 1403q0 -10 7 -18.5t11 -12.5l113 -57q104 -174 201.5 -344t199.5 -346v-484l-174 -51q-10 -4 -17 -13t-7 -20v-32q0 -14 9 -24.5t23 -10.5h518q14 0 23.5 10t9.5 25v32q0 27 -24 33q-41 10 -86 23.5t-88 27.5v488q100 176 197.5 345t199.5 343l111 55q6 4 13 12.5 t7 18.5v33q0 34 -33 34h-2h-422q-16 0 -24 -10t-8 -24v-33q0 -8 5 -18.5t15 -14.5q37 -12 73 -23.5t70 -21.5q-78 -135 -149.5 -257t-147.5 -255q-76 133 -145.5 257t-144.5 255l149 45q10 4 17.5 13.5t7.5 19.5v33q0 34 -33 34h-2h-438q-35 0 -35 -34v-33z" />
<glyph unicode="Z" horiz-adv-x="1132" d="M45 25q0 -35 35 -35h950q35 0 35 35v413q0 14 -10.5 23.5t-24.5 9.5h-43q-10 0 -21.5 -8t-13.5 -19q-14 -76 -26.5 -147.5t-26.5 -144.5h-641l797 1161v123q0 34 -33 34h-2h-909q-14 0 -23.5 -10t-9.5 -24v-400q0 -14 9 -24.5t24 -10.5h45q12 0 21 9.5t11 19.5 q29 139 54 279h598l-795 -1159v-125z" />
<glyph unicode="[" horiz-adv-x="540" d="M158 -274q0 -41 11 -53.5t56 -12.5h224q32 0 32 33v88q0 12 -8 22.5t-24 10.5h-117v1558h117q16 0 24 10.5t8 22.5v88q0 14 -8 24.5t-24 10.5h-224q-45 0 -56 -14.5t-11 -51.5v-1736z" />
<glyph unicode="\" horiz-adv-x="745" d="M14 1432l557 -1440q10 -23 33 -23l103 11q16 2 25 15.5t3 31.5l-557 1439q-8 20 -33 21l-102 -10q-16 -2 -25.5 -14.5t-3.5 -30.5z" />
<glyph unicode="]" horiz-adv-x="540" d="M63 -219v-88q0 -33 33 -33h223q37 0 52.5 12.5t15.5 53.5v1736q0 39 -15.5 52.5t-52.5 13.5h-223q-16 0 -24.5 -10.5t-8.5 -24.5v-88q0 -12 8.5 -22.5t24.5 -10.5h121q0 -395 -2 -782t-2 -780q-23 0 -48.5 3t-47.5 3q-23 0 -38.5 -7.5t-15.5 -27.5z" />
<glyph unicode="^" horiz-adv-x="1302" d="M207 699.5q10 -15.5 31 -15.5h120q10 0 18.5 7t12.5 11q66 131 130.5 261.5t129.5 259.5l260 -521q4 -4 12.5 -11t18.5 -7h121q20 0 30.5 15.5t0.5 33.5l-365 719q-4 4 -12 11t-19 7h-94q-10 0 -18.5 -7t-12.5 -11l-364 -719q-10 -18 0 -33.5z" />
<glyph unicode="_" horiz-adv-x="1024" d="M-23 -324v-98q0 -14 9.5 -24.5t23.5 -10.5h1002q14 0 23 10.5t9 24.5v98q0 14 -9 24.5t-23 10.5h-1002q-14 0 -23.5 -10t-9.5 -25z" />
<glyph unicode="`" horiz-adv-x="536" d="M39 1439.5q-8 -20.5 6 -36.5l219 -273q12 -12 27 -12h115q23 0 31.5 17.5t-3.5 35.5l-184 275q-4 4 -12.5 9t-16.5 5h-149q-25 0 -33 -20.5z" />
<glyph unicode="a" d="M61 295q0 -147 75 -236.5t222 -89.5q100 0 178 25.5t138 83.5q0 -10 -2 -24.5t0 -29t9 -24.5t26 -10h239q16 0 24.5 10.5t8.5 24.5v30q0 8 -4 18.5t-14 14.5q-29 10 -58 23.5t-55 25.5v692q0 176 -84 268.5t-252 92.5h-76q-164 0 -253 -78t-89 -225v-35q0 -35 35 -35h111 q14 0 23 10.5t9 24.5v22q0 158 170 158h56q86 0 127 -51t41 -174v-109h-228q-377 0 -377 -336v-67zM244 305v39q0 98 53 148.5t184 50.5q59 0 107.5 -2t77.5 -6v-113q-8 -59 -30 -112.5t-56.5 -93.5t-81.5 -63.5t-107 -23.5q-72 0 -109.5 50t-37.5 126z" />
<glyph unicode="b" horiz-adv-x="1071" d="M4 25q0 -35 35 -35h260q35 0 35 35v53q59 -59 124.5 -84t174.5 -25q92 0 161.5 38t116.5 107.5t72 167t25 218.5v162q0 119 -25 217t-72 166.5t-117.5 106.5t-162.5 38q-82 0 -163 -23.5t-144 -76.5v346q0 14 -9.5 24t-23.5 10h-246q-35 0 -35 -34v-33q0 -20 21 -31 q29 -12 55.5 -25.5t54.5 -23.5v-1192l-110 -33q-12 -4 -19.5 -14t-7.5 -21v-38zM315 492v204q0 154 77 245t204 91q109 0 169 -101.5t60 -283.5v-135q0 -182 -60 -282.5t-169 -100.5q-127 0 -204 94t-77 269z" />
<glyph unicode="c" horiz-adv-x="952" d="M86 498q0 -119 26.5 -216.5t77 -167t125 -107.5t170.5 -38h115q61 0 115.5 29t94.5 81t64.5 127t28.5 167l-29 30h-106q-10 0 -20.5 -8t-12.5 -20q-4 -47 -17 -91t-33.5 -79t-48.5 -55.5t-63 -20.5h-75q-109 0 -171.5 102.5t-62.5 278.5v143q0 176 62.5 277.5 t169.5 101.5q106 0 164.5 -54t80.5 -153v-30q0 -14 9.5 -24.5t23.5 -10.5h94q16 0 24.5 10t8.5 25v342q0 14 -8 24t-25 10h-43q-14 0 -22 -10t-12.5 -23.5t-5.5 -26.5t-1 -21q-53 45 -124.5 72.5t-172.5 27.5q-197 0 -299 -141.5t-102 -384.5v-166z" />
<glyph unicode="d" horiz-adv-x="1071" d="M66 502q0 -123 23.5 -221.5t70.5 -167t116.5 -106.5t161.5 -38q184 0 305 99v-43q0 -14 9.5 -24.5t23.5 -10.5h246q35 0 35 35v30q0 23 -21 33q-29 10 -55.5 23.5t-54.5 25.5v1299q0 34 -33 34h-2h-268q-35 0 -35 -34v-33q0 -10 7 -18.5t15 -12.5q33 -12 67 -25.5 t66 -25.5v-229q-61 51 -141 74.5t-158 23.5q-92 0 -162.5 -38t-118.5 -107.5t-72.5 -168t-24.5 -221.5v-153zM246 510v139q0 180 59.5 281.5t163.5 101.5q129 0 206 -90t77 -244v-213q0 -166 -77 -261t-204 -95q-104 0 -164.5 100.5t-60.5 280.5z" />
<glyph unicode="e" horiz-adv-x="976" d="M66 498q0 -252 99 -390.5t302 -138.5h92q139 0 234.5 97.5t115.5 279.5v29q0 16 -10 24.5t-22 8.5h-103q-12 0 -22.5 -8.5t-10.5 -24.5v-17q-10 -98 -60 -163.5t-136 -65.5h-72q-111 0 -170 97.5t-59 277.5v14h647q35 0 35 35v104q0 123 -24.5 221.5t-74 167t-122 106.5 t-168.5 38h-78q-197 0 -295 -143.5t-98 -395.5v-153zM244 676q2 166 61.5 261t159.5 95h59q104 0 162.5 -85t58.5 -245v-26h-501z" />
<glyph unicode="f" horiz-adv-x="540" d="M18 25q0 -14 9.5 -24.5t23.5 -10.5h422q35 0 35 35v30q0 10 -7 19.5t-16 13.5q-33 10 -68.5 24.5t-68.5 26.5v873h148q16 0 24 10t8 22v93q0 14 -8 24t-24 10h-148v7q0 86 29 117.5t88 33.5l76 -8h26q33 0 33 33v71q0 10 -8 21.5t-19 13.5q-31 6 -61.5 14.5t-58.5 12.5 q-23 4 -45 4q-40 0 -74 -13q-53 -18 -91 -60t-58.5 -103.5t-20.5 -134.5v-9h-113q-14 0 -23.5 -10t-9.5 -24v-93q0 -33 33 -32h113v-875l-127 -51q-18 -10 -19 -31v-30z" />
<glyph unicode="g" horiz-adv-x="1071" d="M66 508q0 -117 24.5 -212t72.5 -162.5t116.5 -105.5t156.5 -38q86 0 166 29.5t139 80.5v-75q0 -127 -46 -179.5t-156 -52.5h-64q-98 0 -166.5 33t-75.5 98q-4 33 -34 33q-29 0 -43 -1l-15 -1q-12 -2 -21 -11.5t-9 -23.5v-31q0 -125 93 -190.5t255 -65.5h86 q197 0 287 89.5t90 289.5v1014l118 47q21 10 21 33v31q0 35 -35 34h-252q-14 0 -23.5 -10t-9.5 -24v-54q-59 53 -139 80t-168 27t-156.5 -38t-115.5 -105.5t-71.5 -164t-24.5 -212.5v-162zM246 514v148q0 170 59.5 270t157.5 100h86q41 0 77 -31.5t61.5 -89t39.5 -137.5 t14 -176v-29q0 -96 -15 -173t-42 -132t-60.5 -84.5t-72.5 -29.5h-82q-49 0 -90 25.5t-70.5 73.5t-46 114.5t-16.5 150.5z" />
<glyph unicode="h" horiz-adv-x="1083" d="M16 1403q0 -8 6.5 -17.5t14.5 -13.5q35 -12 64.5 -25.5t62.5 -23.5v-1186l-125 -49q-10 -4 -14.5 -14.5t-4.5 -18.5v-30q0 -14 8.5 -24.5t24.5 -10.5h406q35 0 35 35v30q0 10 -7.5 19.5t-15.5 13.5q-31 10 -61.5 23.5t-65.5 25.5v621q0 61 18.5 111.5t52.5 87t79 56 t100 19.5q152 0 151 -250v-647l-129 -47q-8 -4 -15 -13t-7 -20v-30q0 -35 35 -35h405q16 0 24.5 10.5t8.5 24.5v30q0 20 -18 31q-33 12 -62 25.5t-59 25.5v672q0 184 -76 282.5t-229 98.5q-78 0 -150 -18.5t-129 -65.5v330q0 14 -8 24t-25 10h-262q-16 0 -24.5 -10t-8.5 -24 v-33z" />
<glyph unicode="i" horiz-adv-x="501" d="M4 25q0 -14 9.5 -24.5t23.5 -10.5h418q14 0 23 10.5t9 24.5v30q0 23 -20 33q-29 10 -62.5 23.5t-62.5 25.5v1000q0 35 -35 34h-270q-14 0 -23.5 -10t-9.5 -24v-31q0 -23 23 -33q33 -12 65.5 -25.5t65.5 -25.5v-885l-131 -49q-8 -4 -15.5 -13t-7.5 -20v-30zM131 1395 q0 -45 29.5 -75t75.5 -30q45 0 75.5 30t30.5 75t-31.5 73.5t-74.5 28.5q-45 0 -75 -28.5t-30 -73.5z" />
<glyph unicode="j" horiz-adv-x="460" d="M-33 -272v-54q0 -14 10.5 -23t24.5 -9q8 0 14 -2q16 -4 31.5 -6.5t32.5 -2.5q135 0 194.5 58.5t59.5 193.5v1254q0 14 -9.5 24t-23.5 10h-272q-35 0 -35 -34v-31q0 -10 7 -19.5t15 -13.5q31 -12 67 -25.5t69 -23.5v-1110q0 -25 -1 -51.5t-7.5 -51t-18.5 -43t-35 -26.5 l2 10h-2h-4l-12 2q-18 0 -23 2v-2q-23 6 -34 7t-21 -1q-12 -2 -20.5 -12t-8.5 -20zM127 1395q0 -45 30.5 -75t75.5 -30t75 30t30 75t-29.5 73.5t-75.5 28.5q-43 0 -74.5 -28.5t-31.5 -73.5z" />
<glyph unicode="k" d="M20 25q0 -35 35 -35h371q35 0 35 35v30q0 20 -17 29q-23 12 -47 24.5t-47 26.5v273q23 29 47.5 58.5t46.5 57.5q33 -53 64 -102t60.5 -96t59 -95.5t64.5 -101.5l-90 -43q-18 -10 -18 -31v-30q0 -14 8 -24.5t24 -10.5h349q34 0 34 35v30q0 20 -16 29q-53 29 -94 57 l-311 539l260 334l120 61q8 4 11.5 13.5t3.5 17.5v31q0 14 -8.5 24t-24.5 10h-365q-35 0 -34 -34v-31q0 -23 20 -33q23 -10 46.5 -19.5t45.5 -19.5q-78 -92 -153.5 -186t-149.5 -184v772q0 34 -33 34h-2h-260q-35 0 -35 -34v-33q0 -20 21 -31q29 -12 62.5 -25.5t64.5 -23.5 v-1186l-127 -49q-20 -10 -21 -33v-30z" />
<glyph unicode="l" horiz-adv-x="473" d="M4 25q0 -14 9.5 -24.5t23.5 -10.5h414q14 0 23 10.5t9 24.5v30q0 23 -20 33q-33 10 -60.5 23.5t-60.5 25.5v1299q0 34 -33 34h-2h-270q-14 0 -23.5 -10t-9.5 -24v-33q0 -10 7 -18.5t16 -12.5q33 -12 65.5 -25.5t65.5 -25.5v-1184l-131 -49q-8 -4 -15.5 -13t-7.5 -20v-30z " />
<glyph unicode="m" horiz-adv-x="1636" d="M23 1106q0 -23 22 -33q33 -12 65.5 -25.5t67.5 -25.5v-885l-127 -49q-23 -12 -22 -33v-30q0 -35 34 -35h408q16 0 24.5 10t8.5 25v30q0 8 -4 17.5t-15 15.5q-29 10 -62.5 23.5t-62.5 25.5v627q0 121 71 194.5t185 73.5q53 0 86 -58.5t33 -166.5v-670l-131 -49 q-8 -4 -15 -13t-7 -20v-30q0 -14 9 -24.5t23 -10.5h408q14 0 23.5 10t9.5 25v30q0 23 -21 33q-29 10 -57.5 23.5t-58.5 25.5v635q0 123 65.5 191.5t175.5 68.5q61 0 98 -58.5t37 -166.5v-672l-131 -47q-8 -4 -15 -13t-7 -20v-30q0 -35 35 -35h403q35 0 35 35v30q0 23 -21 33 q-29 10 -58.5 23.5t-57.5 25.5v672q0 182 -77 281.5t-233 99.5q-102 0 -181 -30t-126 -85q-35 55 -93 85t-151 30q-72 0 -137 -20.5t-119 -65.5v33q0 35 -34 34h-269q-35 0 -34 -34v-31z" />
<glyph unicode="n" horiz-adv-x="1083" d="M14 1106q0 -10 7.5 -18.5t13.5 -12.5q35 -14 67.5 -27.5t65.5 -23.5v-889l-131 -47q-20 -10 -21 -33v-30q0 -14 8.5 -24.5t24.5 -10.5h408q35 0 35 35v30q0 23 -21 33q-33 10 -61.5 23.5t-61.5 25.5v621q0 123 68.5 198.5t179.5 75.5q150 0 149 -250v-645l-131 -49 q-8 -4 -15 -13t-7 -20v-30q0 -35 35 -35h409q14 0 23.5 10.5t9.5 24.5v30q0 18 -18 33q-35 10 -62.5 23.5t-60.5 25.5v672q0 184 -75 282.5t-228 98.5q-78 0 -150 -19.5t-127 -64.5v31q0 14 -8 24t-25 10h-268q-16 0 -24.5 -10t-8.5 -24v-31z" />
<glyph unicode="o" horiz-adv-x="1015" d="M66 506q0 -123 25.5 -221.5t76.5 -169t124 -108.5t169 -38h98q94 0 169 38t125 108.5t76.5 169t26.5 221.5v149q0 123 -25.5 221.5t-76.5 168t-125 107.5t-170 38h-98q-96 0 -169 -38t-124 -107.5t-76.5 -168t-25.5 -221.5v-149zM248 514v131q0 182 60.5 284.5 t170.5 102.5h62q111 0 172 -102.5t61 -284.5v-131q0 -182 -61.5 -283.5t-171.5 -101.5h-62q-111 0 -171 101.5t-60 283.5z" />
<glyph unicode="p" horiz-adv-x="1083" d="M4 -281v-32q0 -16 10.5 -24.5t24.5 -8.5h405q14 0 24.5 8t10.5 25v32q0 10 -7 18.5t-15 12.5q-31 12 -63 25.5t-64 23.5v267q59 -53 133 -75t160 -22q92 0 162.5 38t118.5 107.5t72.5 167t24.5 218.5v162q0 119 -23.5 217t-70.5 166.5t-116.5 106.5t-161.5 38 q-90 0 -164 -22.5t-135 -82.5v52q0 35 -35 34h-256q-35 0 -35 -34v-31q0 -23 21 -33q33 -12 61.5 -24.5t60.5 -22.5v-1229l-122 -47q-20 -10 -21 -31zM322 461v207q0 178 74.5 271t199.5 93q106 0 164.5 -100.5t58.5 -280.5v-143q0 -180 -59.5 -279.5t-163.5 -99.5 q-125 0 -199.5 90t-74.5 242z" />
<glyph unicode="q" horiz-adv-x="1021" d="M66 506q0 -123 25.5 -221.5t76.5 -169t124 -108.5t169 -38h94l272 -262h70q20 0 30.5 16.5t-3.5 36.5l-176 260q104 59 156 184.5t52 301.5v149q0 123 -25.5 221.5t-76.5 168t-125 107.5t-170 38h-98q-96 0 -169 -38t-124 -107.5t-76.5 -168t-25.5 -221.5v-149zM248 514 v131q0 182 60.5 284.5t170.5 102.5h62q111 0 172 -102.5t61 -284.5v-131q0 -182 -61.5 -283.5t-171.5 -101.5h-62q-111 0 -171 101.5t-60 283.5z" />
<glyph unicode="r" horiz-adv-x="681" d="M12 25q0 -35 35 -35h436q14 0 23.5 10t9.5 25v30q0 10 -6 19.5t-16 13.5q-37 10 -75 24.5t-75 28.5v672q0 57 25.5 94t67.5 57.5t94.5 28.5t105.5 8q35 0 35 35l2 123l-31 29q-70 0 -153.5 -19.5t-147.5 -74.5v43q0 14 -9 24t-24 10h-262q-35 0 -35 -34v-31 q0 -10 7.5 -19.5t15.5 -13.5q31 -12 62.5 -25.5t64.5 -23.5v-887l-127 -49q-23 -12 -23 -33v-30z" />
<glyph unicode="s" horiz-adv-x="870" d="M53 10q0 -35 35 -35h18q25 0 33 27q8 29 21 61q57 -55 134 -74.5t169 -19.5q170 0 260 84t90 250v59q0 100 -31.5 158t-83 88.5t-113 43t-120.5 18.5q-45 4 -85 11t-70.5 21.5t-48 40t-17.5 68.5v49q0 76 41 124t121 48q113 0 172 -42t59 -95v-82q0 -14 10 -23.5t25 -9.5 h90q14 0 24.5 9.5t10.5 23.5v324q0 35 -35 34h-19q-23 0 -32 -22q-4 -12 -9.5 -23.5t-9.5 -23.5q-53 41 -132 64.5t-177 23.5q-141 0 -229 -86t-88 -246v-67q0 -90 29.5 -144.5t77.5 -83t106.5 -40t115.5 -17.5q47 -6 90 -13.5t75 -23.5t51.5 -48t19.5 -83v-31 q0 -90 -45 -134t-125 -44q-106 0 -174 48t-72 138q0 8 1 21.5t-1 24t-9 18.5t-24 8h-94q-35 0 -35 -35v-342z" />
<glyph unicode="t" horiz-adv-x="610" d="M-10 1044q0 -14 10 -23t25 -9h127v-799q0 -123 52 -183.5t167 -60.5q104 0 165.5 59.5t61.5 168.5v47q0 31 -33 35q-6 0 -24.5 4t-38.5 4q-18 0 -34.5 -7.5t-16.5 -27.5q0 -78 -13.5 -100.5t-42.5 -22.5t-45 22.5t-16 75.5v785h201q14 0 24 9t10 23v93q0 35 -34 34h-201 v209q0 33 -33 33h-8h-68q-12 0 -22 -7t-10 -24q-8 -51 -17.5 -105t-19.5 -106h-131q-35 0 -35 -34v-93z" />
<glyph unicode="u" horiz-adv-x="1083" d="M18 1106q0 -20 19 -31q33 -14 60.5 -26.5t58.5 -22.5v-666q0 -188 73.5 -289.5t227.5 -101.5q82 0 155.5 25.5t128.5 73.5v-43q0 -14 8.5 -24.5t24.5 -10.5h260q16 0 24.5 10.5t8.5 24.5v30q0 23 -20 33q-33 10 -64 23.5t-63 25.5v1000q0 34 -33 34h-2h-258 q-35 0 -35 -34v-31q0 -23 20 -33q29 -12 63 -25.5t64 -23.5v-623q0 -59 -18.5 -108t-51 -86t-77.5 -57.5t-96 -20.5q-82 0 -120 59.5t-38 188.5v760q0 34 -33 34h-2h-252q-16 0 -24.5 -10t-8.5 -24v-31z" />
<glyph unicode="v" d="M0 1106q0 -16 16 -29q20 -14 41 -26.5t41 -24.5l297 -1014q4 -12 14.5 -19t20.5 -7h125q10 0 20.5 7t14.5 19q147 504 301 1014l82 51q16 9 16 29v31q0 34 -33 34h-2h-346q-35 0 -35 -34v-31q0 -23 21 -33q29 -12 55.5 -23.5t55.5 -21.5q-53 -193 -103.5 -376 t-103.5 -371q-29 100 -54.5 192t-51 181t-51.5 180.5t-54 193.5l108 45q10 4 14.5 14.5t4.5 18.5v31q0 14 -8.5 24t-24.5 10h-346q-35 0 -35 -34v-31z" />
<glyph unicode="w" horiz-adv-x="1544" d="M14 1106q0 -16 17 -29q23 -14 42 -27.5t42 -23.5l258 -1014q2 -12 12 -19t21 -7h135q10 0 21 7t11 19q49 211 99.5 422t99.5 422l199 -844q0 -12 11 -19t22 -7h133q10 0 20 7t14 19q63 252 129 505t130 509l83 51q17 9 17 29v31q0 34 -33 34h-2h-342q-35 0 -35 -34v-31 q0 -23 21 -33q29 -12 54.5 -23.5t53.5 -21.5q-47 -186 -89 -361t-87 -358l-199 836q0 12 -11 19t-21 7h-127q-10 0 -18.5 -7t-12.5 -13l-10 -18q-45 -201 -96.5 -412t-100.5 -412q-25 98 -46 185.5t-41.5 171.5t-42 172t-46.5 188l119 47q20 10 20 33v31q0 34 -33 34h-2 h-354q-35 0 -35 -34v-31z" />
<glyph unicode="x" horiz-adv-x="991" d="M8 25q0 -35 35 -35h311q35 0 35 35v30q0 20 -16 29l-36 22.5t-36 24.5q49 84 96 160t99 155q51 -86 98 -161.5t96 -161.5q-2 -2 -16.5 -8t-29.5 -16.5t-28.5 -23t-13.5 -24.5v-26q0 -35 35 -35h311q35 0 35 35v30q0 8 -5 16.5t-9 12.5q-20 12 -43 27.5t-43 29.5 q-72 117 -141.5 229.5t-141.5 229.5q66 111 130.5 212t129.5 210q8 6 26.5 14t38 19.5t34 24t14.5 26.5v31q0 14 -9.5 24t-23.5 10h-315q-35 0 -35 -34v-25q0 -8 5 -15t9 -12q16 -10 32.5 -23t33.5 -24q-47 -78 -88 -147.5t-86 -145.5q-47 78 -88 148t-86 147q8 4 23 12.5 t30.5 17.5t27 19.5t11.5 22.5v25q0 34 -33 34h-2h-313q-16 0 -24.5 -10t-8.5 -24v-31q0 -6 3 -15.5t9 -13.5q23 -16 43.5 -29.5t42.5 -27.5q66 -104 131.5 -212t128.5 -212q-72 -117 -140.5 -227.5t-141.5 -227.5l-86 -57q-4 -4 -9.5 -12.5t-5.5 -16.5v-30z" />
<glyph unicode="y" d="M0 1106q0 -12 13.5 -24.5t29.5 -23.5t33.5 -19.5t25.5 -12.5q78 -246 155 -487.5t155 -487.5q-12 -41 -24.5 -79t-27.5 -76v8q-18 -63 -26 -86t-12 -33l-127 -53q-20 -10 -21 -33v-31q0 -35 35 -35h209q20 0 33 23l36 90l25 59q61 147 111.5 299t96.5 305.5t90 308 t93 306.5l74 53q4 4 9 12.5t5 16.5v31q0 34 -33 34h-2h-331q-35 0 -35 -34v-31q0 -23 20 -33q25 -10 55.5 -23.5t59.5 -23.5q-57 -184 -110.5 -356t-110.5 -355q-29 96 -55.5 183.5t-53 171.5t-53.5 171t-55 185l114 47q10 4 14.5 14.5t4.5 18.5v31q0 14 -8.5 24t-24.5 10 h-352q-35 0 -35 -34v-31z" />
<glyph unicode="z" horiz-adv-x="897" d="M63 25q0 -35 35 -35h701q35 0 35 35v297q0 14 -10.5 23t-24.5 9h-41q-10 0 -20.5 -7t-14.5 -17q-10 -45 -23.5 -89t-27.5 -91h-398l551 878v109q0 34 -32 34h-2h-685q-35 0 -34 -34v-273q0 -35 34 -35h41q10 0 19.5 7.5t13.5 17.5q10 37 23.5 78t27.5 80h381l-549 -877 v-110z" />
<glyph unicode="{" horiz-adv-x="612" d="M76 553q0 -31 33 -35q51 -4 80.5 -65.5t29.5 -165.5v-340q0 -57 13.5 -108.5t44 -91.5t81 -63.5t123.5 -23.5h60q14 0 24 8.5t10 24.5v82q0 16 -10 24t-24 8h-66q-33 4 -57.5 41t-24.5 138v297q0 123 -29.5 196.5t-87.5 112.5q53 41 85 114.5t32 196.5v297 q0 100 24.5 137t57.5 41h66q14 0 24 9.5t10 23.5v82q0 35 -34 35h-60q-74 0 -124 -24.5t-80.5 -64.5t-44 -92.5t-13.5 -107.5v-340q0 -104 -29.5 -165.5t-80.5 -65.5q-33 -4 -33 -35v-80z" />
<glyph unicode="|" horiz-adv-x="458" d="M139 -135q0 -16 10.5 -24.5t24.5 -8.5h111q14 0 24 8.5t10 24.5v1612q0 35 -34 34h-111q-35 0 -35 -34v-1612z" />
<glyph unicode="}" horiz-adv-x="612" d="M35 -225v-82q0 -16 10 -24.5t25 -8.5h59q74 0 124 23.5t81 63.5t45 91t14 109v340q0 104 31 165.5t84 65.5l29 31v84q0 31 -33 35q-51 4 -81 65.5t-30 165.5v340q0 57 -14 109.5t-45 92.5t-81 63.5t-124 23.5h-59q-35 0 -35 -35v-82q0 -14 10 -23.5t25 -9.5h65 q33 -4 58.5 -41t25.5 -137v-297q0 -123 32 -196.5t85 -114.5q-53 -41 -85 -113.5t-32 -195.5v-297q0 -100 -25.5 -137t-58.5 -42h-65q-14 0 -24.5 -8t-10.5 -24z" />
<glyph unicode="~" horiz-adv-x="1302" d="M166 518q-8 -14 1 -33.5t24.5 -38t30.5 -32.5l16 -13q14 -16 29.5 -13t23.5 20q35 59 68.5 88.5t74.5 29.5q59 0 187 -63q137 -72 243 -72q102 0 167 55t110 129l-2 35l-76 84q-12 10 -27.5 9t-23.5 -15q-39 -61 -71 -91t-73 -30q-29 0 -76 14.5t-112 49.5 q-70 37 -129 53t-111 16q-102 0 -167.5 -54t-106.5 -128z" />
<glyph unicode="&#xa1;" horiz-adv-x="620" d="M199 -215q0 -35 32 -35h136q34 0 34 35l-20 1081q0 35 -35 35h-92q-35 0 -35 -35zM207 1049q0 -12 8 -22.5t25 -10.5h147q33 0 33 33v149q0 14 -9.5 24.5t-23.5 10.5h-147q-16 0 -24.5 -10.5t-8.5 -24.5v-149z" />
<glyph unicode="&#xa2;" horiz-adv-x="952" d="M86 498q0 -242 100 -381q96 -129 254 -148v-151q0 -14 9.5 -24.5t23.5 -10.5h80q35 0 35 35v151h12q61 0 115.5 29t94.5 81t64.5 127t28.5 167l-29 30h-106q-10 0 -20.5 -8t-12.5 -20q-10 -90 -47 -163t-100 -83v891q66 -18 104.5 -73.5t48.5 -119.5v-32q0 -14 9.5 -24.5 t23.5 -10.5h94q16 0 24.5 10t8.5 25v342q0 14 -8 24t-25 10h-22q-25 0 -33 -26q-4 -16 -9 -31.5t-11 -32.5q-23 20 -49.5 38t-63.5 36v-2q-43 20 -92 29v161q0 14 -10.5 23.5t-24.5 9.5h-80q-33 0 -33 -33v-153q-162 -18 -254 -146q-53 -72 -76.5 -166t-23.5 -214v-166z M264 510v143q0 88 17.5 159t46.5 122q20 35 49 57.5t63 32.5v-887q-55 16 -89 59.5t-53 97.5t-26.5 111.5t-7.5 104.5z" />
<glyph unicode="&#xa3;" horiz-adv-x="1011" d="M33 25q0 -14 8 -24.5t25 -10.5h686h51t58.5 -1t45.5 -1h21l28 30v347q0 14 -8 24t-24 10h-52q-10 0 -20 -7t-14 -19q-12 -55 -25.5 -112.5t-28.5 -110.5h-419v557h256q16 0 24 10t8 24v93q0 14 -8 24t-24 10h-254v209q0 133 43 185.5t127 52.5q98 0 162.5 -42t76.5 -104 v-63q0 -14 10.5 -23.5t24.5 -9.5h92q35 0 35 33l2 104q-27 121 -134.5 193t-266.5 72q-184 0 -268.5 -101.5t-84.5 -277.5v-228h-120q-16 0 -24.5 -10t-8.5 -24v-93q0 -14 8 -24t25 -10h120v-557h-120q-16 0 -24.5 -10.5t-8.5 -24.5v-90z" />
<glyph unicode="&#xa4;" horiz-adv-x="1257" d="M14 535q0 -35 35 -35h103q12 -121 54 -219.5t111.5 -167t163.5 -105.5t211 -37q211 0 355.5 96t197.5 289v105q0 35 -35 35h-120q-14 0 -23.5 -10.5t-9.5 -24.5v-58q-37 -129 -130 -195.5t-227 -66.5q-154 0 -243.5 93.5t-110.5 265.5h795q35 0 35 35v86q0 14 -10.5 23 t-24.5 9h-801v131h801q14 0 24.5 9.5t10.5 23.5v86q0 16 -10.5 24.5t-24.5 8.5h-797q18 182 109.5 282.5t248.5 100.5q123 0 224.5 -76t140.5 -205v-57q0 -14 8 -24.5t25 -10.5h102q35 0 35 35v455q0 35 -35 34h-28q-10 0 -20.5 -7t-14.5 -19q-10 -49 -25 -98 q-66 66 -172 103.5t-246 37.5q-246 0 -387 -147.5t-159 -403.5h-101q-14 0 -24.5 -8t-10.5 -25v-86q0 -14 10.5 -23.5t24.5 -9.5h98v-131h-98q-14 0 -24.5 -9t-10.5 -23v-86z" />
<glyph unicode="&#xa5;" horiz-adv-x="1058" d="M-8 1389q0 -16 16 -29q23 -16 47.5 -27.5t46.5 -25.5q63 -129 125 -251t125 -249h-186q-35 0 -35 -35v-92q0 -35 35 -35h266q4 -14 10 -24v-70h-278q-35 0 -35 -35v-92q0 -35 35 -35h278v-248l-145 -51q-10 -4 -16.5 -13t-6.5 -20v-32q0 -35 35 -35h443q35 0 34 35v32 q0 10 -7 19.5t-17 13.5q-35 10 -71 23.5t-73 27.5v248h271q35 0 35 35v92q0 35 -35 35h-271v78q2 4 4.5 8t4.5 8h260q35 0 35 35v92q0 35 -35 35h-180q66 131 123 247.5t122 250.5l99 53q16 13 16 31v32q0 14 -9 24.5t-24 10.5h-364q-35 0 -35 -35v-32q0 -23 22 -33 q29 -10 57.5 -21.5t57.5 -23.5q-61 -127 -120.5 -247t-121.5 -245q-33 66 -62.5 126.5t-59 119.5t-59.5 119.5t-62 126.5l127 45q23 10 22 33v32q0 35 -35 35h-376q-14 0 -23.5 -10t-9.5 -25v-32z" />
<glyph unicode="&#xa6;" horiz-adv-x="458" d="M139 -135q0 -16 10.5 -24.5t24.5 -8.5h111q14 0 24 8.5t10 24.5v643q0 14 -10 23.5t-24 9.5h-111q-14 0 -24.5 -9.5t-10.5 -23.5v-643zM139 836q0 -35 35 -35h111q34 0 34 35v641q0 35 -34 34h-111q-35 0 -35 -34v-641z" />
<glyph unicode="&#xa7;" horiz-adv-x="1024" d="M109 627q0 -80 10 -134.5t37.5 -92.5t76 -62.5t125.5 -40.5q37 -8 76 -16.5t78 -18.5q127 -33 170 -76t43 -110q0 -98 -52 -127t-151 -29q-135 0 -205.5 48t-70.5 126v35q0 16 -10.5 24.5t-24.5 8.5h-47q-14 0 -24.5 -8.5t-10.5 -24.5v-47q0 -76 18.5 -137.5t62.5 -104.5 t118.5 -66.5t187.5 -23.5q94 0 167 16.5t122 55.5t73.5 102.5t24.5 155.5t-30.5 150.5t-84.5 93.5q66 35 98 102t32 184q0 80 -10.5 134.5t-37 92t-76 62.5t-124.5 41l-111 25h6q-80 18 -131 36.5t-80.5 42t-41 53t-11.5 66.5q0 96 52.5 126t148.5 30q135 0 206.5 -49 t71.5 -127v-35q0 -14 10.5 -23.5t24.5 -9.5h47q14 0 24.5 9.5t10.5 23.5v49q0 76 -18.5 136.5t-63.5 103.5t-118.5 66.5t-186.5 23.5q-96 0 -169 -16.5t-121 -54.5t-72.5 -101.5t-24.5 -155.5t30.5 -151.5t84.5 -94.5q-66 -35 -97.5 -102.5t-31.5 -183.5zM289 641 q0 90 27.5 129t80.5 55l240 -69q31 -10 51.5 -20.5t30.5 -28t14 -44t4 -65.5q0 -90 -27.5 -130t-80.5 -56l-240 69q-31 8 -51.5 19.5t-30.5 29t-14 44t-4 67.5z" />
<glyph unicode="&#xa8;" horiz-adv-x="536" d="M-8 1276q0 -45 30.5 -75t75.5 -30t75 30t30 75t-30 73.5t-75 28.5q-43 0 -74.5 -28.5t-31.5 -73.5zM334 1276q0 -45 29.5 -75t74.5 -30t76 30t31 75t-32 73.5t-75 28.5q-45 0 -74.5 -28.5t-29.5 -73.5z" />
<glyph unicode="&#xa9;" horiz-adv-x="1656" d="M72 733q0 -158 59 -296t161.5 -240.5t242 -163t296.5 -60.5q158 0 296.5 59.5t242 163t162.5 242.5t59 297q0 156 -59 294t-162.5 241.5t-242 163t-296.5 59.5t-297 -59.5t-241.5 -163t-161.5 -241.5t-59 -296zM233 735q0 123 47.5 232.5t129.5 191.5t190.5 129t230.5 47 q123 0 231.5 -47t190.5 -129t129.5 -191.5t47.5 -234.5t-47.5 -234.5t-129.5 -191.5t-190.5 -129t-231.5 -47t-231 47t-190 129t-129.5 191.5t-47.5 236.5zM485 657q0 -164 83 -262t233 -98q121 0 203.5 56t113.5 167v62q0 14 -8 24t-25 10h-67q-35 0 -35 -34v-27 q-16 -68 -63.5 -100.5t-116.5 -32.5q-86 0 -133 61.5t-47 178.5v141q0 113 48 173t134 60q66 0 117 -35.5t67 -103.5v-31q0 -14 10.5 -23t24.5 -9h57q16 0 24.5 10t8.5 22v252q0 14 -8 24.5t-25 10.5h-39q-14 0 -23 -10t-9 -25v-10q-39 27 -91.5 41t-117.5 14 q-150 0 -233 -97t-83 -261v-148z" />
<glyph unicode="&#xaa;" horiz-adv-x="634" d="M20 1006q0 -98 53.5 -154.5t155.5 -56.5q119 0 199 53v-8q0 -35 35 -35h160q34 0 34 35v55q0 35 -34 35h-56v401q0 233 -233 234h-51q-117 0 -178.5 -50.5t-61.5 -148.5v-23q0 -33 33 -32h74q14 0 24 9t10 23v13q4 45 28 65.5t75 20.5h37q53 0 76.5 -29t23.5 -96v-51 h-139q-264 0 -265 -222v-38zM164 1012v24q0 51 31.5 79t115.5 28h113v-60q-10 -70 -52 -117.5t-120 -47.5q-43 0 -65.5 26.5t-22.5 67.5z" />
<glyph unicode="&#xab;" horiz-adv-x="845" d="M104 524l181 -399q4 -10 15 -16.5t24 -4.5q4 0 26.5 2.5t45 8.5t38 18t6.5 35q-41 92 -83 184t-83 185l168 372q6 16 -2 29.5t-24 17.5q-6 0 -23.5 6.5t-39 9.5t-40 0t-26.5 -20l-183 -399q-4 -14 0 -29zM385 524l180 -399q4 -10 15.5 -16.5t23.5 -4.5q4 0 26.5 2.5 t45 8.5t38 18t7.5 35q-41 92 -83 184t-83 185l168 372q6 16 -2 29.5t-25 17.5q-6 0 -23.5 6.5t-39 9.5t-40 0t-26.5 -20l-182 -399q-4 -14 0 -29z" />
<glyph unicode="&#xac;" horiz-adv-x="1267" d="M55 627q0 -12 8.5 -22.5t24.5 -10.5h948v-416q0 -35 35 -35h111q16 0 24 10.5t8 24.5v561q0 12 -8 22.5t-24 10.5h-1094q-16 0 -24.5 -10t-8.5 -23v-112z" />
<glyph unicode="&#xad;" horiz-adv-x="724" d="M74 623q0 -35 35 -35h485q35 0 35 35v94q0 35 -35 35h-485q-35 0 -35 -35v-94z" />
<glyph unicode="&#xae;" horiz-adv-x="1656" d="M70 733q0 -158 59 -296t161.5 -240.5t242 -163t296.5 -60.5q158 0 296.5 59.5t241.5 163t162.5 242.5t59.5 297q0 156 -59.5 294t-162.5 241.5t-241.5 163t-296.5 59.5t-297 -59.5t-241.5 -163t-161.5 -241.5t-59 -296zM231 735q0 123 47.5 232.5t129 191.5t190.5 129 t231 47q123 0 231.5 -47t190.5 -129t129 -191.5t47 -234.5t-47 -234.5t-129 -191.5t-190.5 -129t-231.5 -47t-231.5 47t-190 129t-129 191.5t-47.5 236.5zM502 340q0 -14 10 -23.5t25 -9.5h262q33 0 32 33v51q0 14 -9 24.5t-23 10.5h-66v244h113q53 0 72.5 -22.5t29.5 -76.5 l41 -217v-14q0 -14 10.5 -23.5t24.5 -9.5h135q14 0 24.5 9.5t10.5 23.5v51q0 35 -35 35h-47l-35 182q-8 35 -20.5 66t-40.5 53q39 37 60.5 92t21.5 96v37q0 88 -51.5 144.5t-167.5 56.5h-342q-35 0 -35 -35v-51q0 -16 10 -24.5t25 -8.5h65v-608h-65q-35 0 -35 -35v-51z M733 788v246h123q59 0 89 -24.5t30 -61.5v-30q0 -20 -8.5 -43t-23.5 -42.5t-35.5 -32t-47.5 -12.5h-127z" />
<glyph unicode="&#xaf;" horiz-adv-x="536" d="M-33 1229q0 -33 33 -33h532q33 0 33 33v92q0 16 -10 24.5t-23 8.5h-532q-12 0 -22.5 -8.5t-10.5 -24.5v-92z" />
<glyph unicode="&#xb0;" horiz-adv-x="792" d="M76 1190q0 -68 24.5 -126t67.5 -101t101.5 -68t125.5 -25q68 0 126.5 25t101.5 68t67.5 101t24.5 126t-24.5 126t-67.5 101t-101.5 67.5t-126.5 24.5t-126 -24.5t-101 -67.5t-67.5 -101.5t-24.5 -125.5zM238 1190q0 66 46 112t111 46q66 0 112 -46t46 -112t-46 -112 t-112 -46t-111.5 46t-45.5 112z" />
<glyph unicode="&#xb1;" horiz-adv-x="1267" d="M78 25q0 -35 35 -35h1046q35 0 35 35v110q0 16 -10 24.5t-25 8.5h-1046q-14 0 -24.5 -8t-10.5 -25v-110zM78 621q0 -35 35 -35h432v-367q0 -14 10 -23.5t25 -9.5h110q14 0 24.5 9.5t10.5 23.5v367h434q35 0 35 35v110q0 16 -10 24.5t-25 8.5h-434v366q0 35 -35 35h-110 q-35 0 -35 -35v-366h-432q-14 0 -24.5 -8t-10.5 -25v-110z" />
<glyph unicode="&#xb2;" horiz-adv-x="659" d="M27 573q0 -33 32 -32h535q33 -1 33 32v201q0 14 -9.5 24.5t-23.5 10.5h-74q-35 0 -35 -35v-104h-309q35 49 75 90t85 82v-2q53 47 102 93t87 89t60.5 83t22.5 77v57q0 111 -66.5 173.5t-187.5 62.5h-43q-123 0 -196.5 -72t-73.5 -195v-28q0 -33 33 -33h76q14 0 24 8 t10 25v28q0 66 33 100.5t92 34.5h43q53 0 82 -27.5t29 -78.5v-41q0 -47 -70.5 -118.5t-173.5 -162.5q-59 -53 -103 -104t-89 -115v-123z" />
<glyph unicode="&#xb3;" horiz-adv-x="659" d="M33 788q0 -127 66.5 -192.5t195.5 -65.5h59q121 0 190.5 66.5t69.5 183.5v47q0 90 -42 138.5t-99 70.5q57 41 95 100.5t38 110.5v25q0 45 -21.5 82t-60.5 63.5t-90 42t-110 15.5t-110.5 -15.5t-90.5 -43t-60.5 -66.5t-21.5 -88v-66q0 -14 8 -24.5t25 -10.5h78 q16 0 24 10.5t8 24.5v43q6 47 42 75.5t100 28.5q66 0 101.5 -26.5t35.5 -65.5q0 -25 -15.5 -52.5t-42 -52t-63.5 -45t-80 -30.5q-10 -4 -18 -13t-8 -20v-57q0 -35 34 -35h43q152 0 152 -112v-54q0 -59 -31 -91t-86 -32h-51q-53 0 -85 34t-32 100v16q0 35 -35 35h-79 q-14 0 -23.5 -10.5t-9.5 -24.5v-19z" />
<glyph unicode="&#xb4;" horiz-adv-x="536" d="M101.5 1135.5q9.5 -17.5 31.5 -17.5h113q14 0 26 12l220 273q14 16 5.5 36.5t-32.5 20.5h-150q-6 0 -15 -4t-13 -10l-183 -275q-12 -18 -2.5 -35.5z" />
<glyph unicode="&#xb5;" horiz-adv-x="1083" d="M18 1044q0 -12 8.5 -22t24.5 -10h105v-1325q0 -16 10 -24.5t24 -8.5h115q14 0 24.5 8t10.5 25v311q23 -12 49.5 -20.5t61.5 -8.5q84 0 158.5 25.5t129.5 73.5v-43q0 -14 8.5 -24.5t24.5 -10.5h262q16 0 24.5 10.5t8.5 24.5v90q0 14 -8 24.5t-25 10.5h-114v987 q0 35 -35 34h-260q-35 0 -35 -34v-93q0 -14 10 -23t25 -9h112v-611q0 -59 -18.5 -108t-51 -86t-76.5 -57.5t-95 -20.5q-82 0 -119 59.5t-37 188.5v760q0 35 -35 34h-254q-16 0 -24.5 -10t-8.5 -24v-93z" />
<glyph unicode="&#xb6;" horiz-adv-x="1267" d="M145 1069q0 -78 26 -142.5t72 -113.5t112.5 -78.5t148.5 -38.5v-903q0 -14 10 -23.5t25 -9.5h100q14 0 24.5 9.5t10.5 23.5v1516h188v-1516q0 -14 10.5 -23.5t24.5 -9.5h100q14 0 24.5 9.5t10.5 23.5v1522q19 8 19 28v91q0 35 -35 34h-445q-96 0 -174 -28.5t-134 -80.5 t-87 -126t-31 -164z" />
<glyph unicode="&#xb7;" horiz-adv-x="475" d="M137 680q0 -14 8.5 -24.5t24.5 -10.5h154q14 0 23 10.5t9 24.5v149q0 14 -9 24.5t-23 10.5h-154q-16 0 -24.5 -10t-8.5 -25v-149z" />
<glyph unicode="&#xb8;" horiz-adv-x="536" d="M47 -295q-4 -10 0 -22.5t14 -18.5q25 -14 87.5 -26.5t132.5 -12.5q76 0 125 48t49 122t-39 118t-111 50l31 62q10 16 0 31.5t-31 15.5h-82q-10 0 -17 -7.5t-11 -13.5l-76 -153q-2 -6 -1 -16.5t5 -18.5l22 -27q14 -14 29 -14q16 2 30.5 4t28.5 4q20 0 31.5 -10t11.5 -25 q0 -35 -32 -35q-47 0 -83 11.5t-40 15.5q-18 10 -30.5 2t-22 -24.5t-14.5 -34t-7 -25.5z" />
<glyph unicode="&#xb9;" horiz-adv-x="659" d="M100 1188q0 -25 17.5 -32t36.5 3q35 27 68.5 54.5t68.5 56.5v-606h-92q-16 0 -24.5 -10.5t-8.5 -24.5v-56q0 -12 8 -22t25 -10h325q33 -1 33 32v56q0 14 -9 24.5t-24 10.5h-90v766q0 14 -8 24t-25 10h-88q-98 -94 -200 -172q-4 -4 -8.5 -11t-4.5 -15v-78z" />
<glyph unicode="&#xba;" horiz-adv-x="614" d="M2 1133q0 -156 70.5 -247t206.5 -91h65q135 0 206 91t71 247v92q0 156 -70 248t-207 92h-65q-135 0 -206 -92.5t-71 -247.5v-92zM145 1139v82q0 104 38 162.5t108 58.5h41q66 0 105.5 -58.5t39.5 -162.5v-82q0 -106 -40 -163.5t-105 -57.5h-41q-70 0 -108 57t-38 164z " />
<glyph unicode="&#xbb;" horiz-adv-x="845" d="M117 909q45 -92 87 -184t83 -184l-168 -373q-8 -16 1 -29.5t25 -17.5q6 0 23.5 -6t39 -9.5t40 0t26.5 19.5l183 399q4 14 0 29l-185 399q-4 10 -15 16.5t-24 4.5l-23 -2q-22 -2 -46.5 -8.5t-41 -18.5t-5.5 -35zM397 909q45 -92 87 -184t83 -184l-168 -373 q-8 -16 1.5 -29.5t25.5 -17.5q6 0 23.5 -6t39 -9.5t40 0t26.5 19.5l182 399q4 14 0 29l-184 399q-4 10 -15.5 16.5t-23.5 4.5l-22 -2q-23 -2 -47.5 -8.5t-41 -18.5t-6.5 -35z" />
<glyph unicode="&#xbc;" horiz-adv-x="1536" d="M102 1188q0 -23 18.5 -32t35.5 3q76 51 139 111v-606h-92q-35 0 -35 -35v-56q0 -14 10 -23t25 -9h323q14 0 24.5 9t10.5 23v56q0 35 -35 35h-88v766q0 35 -35 34h-86q-98 -94 -200 -172q-4 -4 -9.5 -12t-5.5 -14v-78zM283 4q-12 -23 0 -35t33.5 -16t43 -5t27.5 -1 q23 0 31 18l825 1489q10 16 2 32.5t-24 18.5l-80 8q-23 0 -31 -18zM801 264q0 -35 35 -35h358v-116h-70q-16 0 -24 -10.5t-8 -22.5v-55q0 -14 8 -24.5t24 -10.5h265q16 0 24 10t8 25v55q0 12 -8 22.5t-24 10.5h-52v116h80q35 0 35 35v55q0 14 -10 23.5t-25 9.5h-80v525 q0 35 -34 34h-97q-8 0 -16 -5t-12 -9l-377 -543v-90zM961 352q63 94 118.5 174t114.5 168v-342h-233z" />
<glyph unicode="&#xbd;" horiz-adv-x="1536" d="M104 1188q0 -25 17.5 -32t36.5 3q35 27 68.5 54.5t68.5 56.5v-606h-92q-35 0 -35 -35v-56q0 -14 10 -23t25 -9h325q33 -1 33 32v56q0 14 -9 24.5t-24 10.5h-90v766q0 14 -9 24t-23 10h-89q-98 -94 -200 -172q-6 -4 -9.5 -13t-3.5 -13v-78zM274 4q-12 -23 0.5 -35t34 -16 t43 -5t27.5 -1q23 0 31 18l825 1489q12 16 2 32.5t-27 18.5l-80 8q-20 0 -28 -18zM901 25q0 -35 35 -35h532q16 0 24.5 10.5t8.5 24.5v198q0 14 -8 24.5t-25 10.5h-73q-35 0 -35 -35v-104h-307q31 45 65.5 81t73.5 72l18 19v-2q55 49 105.5 96t87.5 90t59.5 82t22.5 74v57 q0 111 -67.5 173.5t-188.5 62.5h-41q-125 0 -199 -72t-74 -195v-28q0 -14 10.5 -23.5t24.5 -9.5h74q14 0 24.5 9t10.5 24v28q0 66 33.5 102t93.5 36h41q53 0 81.5 -29t28.5 -80v-41q0 -47 -69.5 -118.5t-173.5 -161.5q-59 -53 -103.5 -104.5t-89.5 -113.5v-122z" />
<glyph unicode="&#xbe;" horiz-adv-x="1536" d="M37 788q0 -127 67.5 -192.5t196.5 -65.5h57q119 0 191 66.5t72 183.5v47q0 90 -42 138.5t-102 70.5q59 41 97 100.5t38 110.5v25q0 45 -22.5 82t-60 63.5t-90 42t-111.5 15.5t-110.5 -15.5t-90.5 -43t-60.5 -66.5t-21.5 -88v-66q0 -35 35 -35h76q35 0 34 35v43 q6 47 42 75.5t98 28.5q66 0 101.5 -26.5t35.5 -65.5q0 -25 -15.5 -52.5t-42 -52t-63.5 -45t-80 -30.5q-12 -4 -18 -13t-6 -20v-57q0 -14 8 -24.5t24 -10.5h43q154 0 154 -112v-54q0 -59 -30.5 -91t-88.5 -32h-49q-55 0 -87 34t-32 100v16q0 35 -34 35h-78q-35 0 -35 -35v-19 zM338 4q-12 -23 0 -35t33.5 -16t43 -5t27.5 -1q23 0 31 18l825 1489q10 16 2 32.5t-24 18.5l-80 8q-23 0 -31 -18zM846 264q0 -14 8 -24.5t25 -10.5h358v-116h-70q-33 0 -32 -33v-55q0 -14 9 -24.5t23 -10.5h265q16 0 24 10t8 25v55q0 12 -8 22.5t-24 10.5h-52v116h80 q35 0 35 35v55q0 14 -10 23.5t-25 9.5h-80v525q0 35 -34 34h-97q-8 0 -16 -5t-12 -9l-375 -543v-90zM1004 352q63 94 118.5 174t114.5 168v-342h-233z" />
<glyph unicode="&#xbf;" d="M88 61q0 -147 95.5 -237t301.5 -90q211 0 305.5 92t94.5 250v57q0 16 -10.5 24.5t-24.5 8.5h-119q-14 0 -24.5 -8t-10.5 -25v-43q0 -96 -52 -145t-150 -49q-106 0 -160.5 48t-54.5 134v98q0 94 48 154.5t111 105.5q117 66 163 126.5t46 139.5v168q0 14 -8 24.5t-25 10.5 h-118q-35 0 -35 -35v-131q0 -55 -39 -100t-127 -98q-47 -29 -85 -63t-65.5 -75t-42 -94t-14.5 -121v-127zM449 1049q0 -14 10 -23.5t24 -9.5h148q33 0 33 33v149q0 14 -9.5 24.5t-23.5 10.5h-148q-35 0 -34 -35v-149z" />
<glyph unicode="&#xc0;" horiz-adv-x="1398" d="M6 25q0 -35 35 -35h432q16 0 24.5 10t8.5 25v32q0 10 -6 19.5t-17 13.5q-35 10 -74.5 23.5t-76.5 23.5q33 96 60.5 180t58.5 179h495q29 -90 59.5 -179.5t61.5 -179.5l-154 -47q-23 -6 -22 -33v-32q0 -14 8 -24.5t25 -10.5h434q35 0 35 35v32q0 10 -7.5 18.5t-13.5 12.5 q-29 14 -57.5 26.5t-57.5 28.5l-440 1305q-4 8 -12 15t-19 7h-168q-10 0 -18 -7t-12 -15q-111 -330 -223.5 -654.5t-225.5 -650.5l-112 -55q-6 -4 -13.5 -12t-7.5 -19v-32zM465 1812.5q-8 -20.5 6 -36.5l219 -273q12 -12 27 -12h114q20 0 29.5 17.5t-2.5 35.5l-182 275 q-4 4 -12.5 9t-16.5 5h-151q-23 0 -31 -20.5zM504 655q51 154 98 296.5t98 291.5l195 -588h-391z" />
<glyph unicode="&#xc1;" horiz-adv-x="1398" d="M47 25q0 -35 35 -35h432q16 0 24.5 10t8.5 25v32q0 10 -6 19.5t-17 13.5q-35 10 -74.5 23.5t-76.5 23.5q33 96 60.5 180t58.5 179h495q29 -90 59.5 -179.5t61.5 -179.5l-154 -47q-23 -6 -22 -33v-32q0 -14 8 -24.5t25 -10.5h434q35 0 35 35v32q0 10 -7.5 18.5t-13.5 12.5 q-29 14 -57.5 26.5t-57.5 28.5l-440 1305q-4 8 -12 15t-19 7h-168q-10 0 -18 -7t-12 -15q-111 -330 -223.5 -654.5t-225.5 -650.5l-112 -55q-6 -4 -13.5 -12t-7.5 -19v-32zM545 655q51 154 98 296.5t98 291.5l195 -588h-391zM546 1508.5q9 -17.5 32 -17.5h112q14 0 27 12 l219 273q14 16 6 36.5t-33 20.5h-149q-6 0 -15.5 -4t-13.5 -10l-182 -275q-12 -18 -3 -35.5z" />
<glyph unicode="&#xc2;" horiz-adv-x="1398" d="M6 25q0 -35 35 -35h432q16 0 24.5 10t8.5 25v32q0 10 -6 19.5t-17 13.5q-35 10 -74.5 23.5t-76.5 23.5q33 96 60.5 180t58.5 179h495q29 -90 59.5 -179.5t61.5 -179.5l-154 -47q-23 -6 -22 -33v-32q0 -14 8 -24.5t25 -10.5h434q35 0 35 35v32q0 10 -7.5 18.5t-13.5 12.5 q-29 14 -57.5 26.5t-57.5 28.5l-440 1305q-4 8 -12 15t-19 7h-168q-10 0 -18 -7t-12 -15q-111 -330 -223.5 -654.5t-225.5 -650.5l-112 -55q-6 -4 -13.5 -12t-7.5 -19v-32zM417 1508.5q9 -17.5 29 -17.5h119q8 0 16.5 5t12.5 9q29 39 54.5 78t53.5 80l109 -158q4 -4 12 -9 t17 -5h118q20 0 29.5 17.5t-2.5 35.5l-190 275q-4 4 -12.5 9t-16.5 5h-127q-8 0 -16.5 -5t-12.5 -9l-190 -275q-12 -18 -3 -35.5zM504 655q51 154 98 296.5t98 291.5l195 -588h-391z" />
<glyph unicode="&#xc3;" horiz-adv-x="1398" d="M47 25q0 -35 35 -35h432q16 0 24.5 10t8.5 25v32q0 10 -6 19.5t-17 13.5q-35 10 -74.5 23.5t-76.5 23.5q33 96 60.5 180t58.5 179h495q29 -90 59.5 -179.5t61.5 -179.5l-154 -47q-23 -6 -22 -33v-32q0 -14 8 -24.5t25 -10.5h434q35 0 35 35v32q0 10 -7.5 18.5t-13.5 12.5 q-29 14 -57.5 26.5t-57.5 28.5l-440 1305q-4 8 -12 15t-19 7h-168q-10 0 -18 -7t-12 -15q-111 -330 -223.5 -654.5t-225.5 -650.5l-112 -55q-6 -4 -13.5 -12t-7.5 -19v-32zM387 1571q-2 -14 8.5 -25.5t24.5 -11.5h78q20 0 27 12.5t11.5 27.5t11.5 28.5t25 13.5 q16 0 43 -10.5t70 -30.5q88 -45 152 -45q86 0 131 56.5t53 162.5l-29 31h-84q-20 0 -26 -12.5t-9.5 -28t-10.5 -27.5t-27 -12q-23 0 -53.5 11t-47.5 22q-59 31 -97 41t-67 10q-84 0 -130 -55.5t-54 -157.5zM545 655q51 154 98 296.5t98 291.5l195 -588h-391z" />
<glyph unicode="&#xc4;" horiz-adv-x="1435" d="M47 25q0 -35 35 -35h432q16 0 24.5 10t8.5 25v32q0 10 -6 19.5t-17 13.5q-35 10 -74.5 23.5t-76.5 23.5q33 96 60.5 180t58.5 179h495q29 -90 59.5 -179.5t61.5 -179.5l-154 -47q-23 -6 -22 -33v-32q0 -14 8 -24.5t25 -10.5h434q35 0 35 35v32q0 10 -7.5 18.5t-13.5 12.5 q-29 14 -57.5 26.5t-57.5 28.5l-440 1305q-4 8 -12 15t-19 7h-168q-10 0 -18 -7t-12 -15q-111 -330 -223.5 -654.5t-225.5 -650.5l-112 -55q-6 -4 -13.5 -12t-7.5 -19v-32zM455 1647q0 -45 29.5 -74t74.5 -29t75 29t30 74q0 47 -30 75.5t-75 28.5t-74.5 -28.5t-29.5 -75.5z M545 655q51 154 98 296.5t98 291.5l195 -588h-391zM795 1647q0 -45 29.5 -74t74.5 -29q43 0 75 29t32 74q0 47 -31 75.5t-76 28.5t-74.5 -28.5t-29.5 -75.5z" />
<glyph unicode="&#xc5;" horiz-adv-x="1398" d="M6 25q0 -35 35 -35h432q16 0 24.5 10t8.5 25v32q0 10 -6 19.5t-17 13.5q-35 10 -74.5 23.5t-76.5 23.5q33 96 60.5 180t58.5 179h495q29 -90 59.5 -179.5t61.5 -179.5l-154 -47q-23 -6 -22 -33v-32q0 -14 8 -24.5t25 -10.5h434q35 0 35 35v32q0 10 -7.5 18.5t-13.5 12.5 q-29 14 -57.5 26.5t-57.5 28.5l-440 1305q-2 4 -5 8t-7 8q45 27 72.5 74t27.5 104q0 43 -16.5 80t-44 65t-65.5 44t-81 16t-80.5 -16t-66.5 -44t-45.5 -64.5t-16.5 -80.5q0 -59 30 -107t77 -75q-2 -4 -4 -6t-4 -6q-111 -330 -223.5 -654.5t-225.5 -650.5l-112 -55 q-6 -4 -13.5 -12t-7.5 -19v-32zM504 655q51 154 98 296.5t98 291.5l195 -588h-391zM629 1642q0 29 20.5 47.5t48.5 18.5q29 0 48.5 -18.5t19.5 -47.5t-20.5 -48t-47.5 -19q-29 0 -49 19.5t-20 47.5z" />
<glyph unicode="&#xc6;" horiz-adv-x="1845" d="M10 25q0 -35 35 -35h395q35 0 35 35v32q0 10 -7 19.5t-17 13.5q-35 10 -73 22.5t-73 24.5q45 96 87 180t87 179h447q10 -96 18 -178t19 -177l-168 -51q-23 -8 -23 -33v-32q0 -14 8 -24.5t25 -10.5h913q35 0 35 35v413q0 14 -10 23.5t-25 9.5h-45q-10 0 -21.5 -8 t-13.5 -19q-14 -76 -26.5 -147.5t-26.5 -144.5h-438q-14 135 -27.5 257.5t-25.5 256.5h270l51 -156q8 -20 33 -21h29q14 0 24 8.5t10 24.5v439q0 35 -34 34h-29q-10 0 -19.5 -6t-13.5 -16q-12 -37 -25.5 -74t-25.5 -74q-72 0 -144.5 1t-144.5 1q-14 129 -26.5 242t-24.5 240 h555l53 -277q4 -10 14.5 -19t20.5 -9h43q35 0 35 34v398q0 35 -35 34l-922 3q-10 0 -18 -7.5t-12 -13.5q-160 -330 -321 -656.5t-320 -656.5q-8 -6 -25.5 -14t-36 -19.5t-32 -23.5t-13.5 -25v-32zM553 655q76 156 145.5 299.5t145.5 296.5l65 -596h-356z" />
<glyph unicode="&#xc7;" horiz-adv-x="1257" d="M88 600q0 -135 34 -244.5t96.5 -190.5t152.5 -130t204 -60l-36 -77q-2 -6 -1 -16.5t5 -18.5l22 -27q6 -8 15.5 -11t15.5 -3q14 2 27.5 4t29.5 4q20 0 32.5 -10t12.5 -25q0 -35 -32 -35q-47 0 -83 11.5t-40 15.5q-18 10 -31.5 2t-22 -24.5t-13.5 -34t-7 -25.5 q-8 -27 12 -41q25 -14 87.5 -26.5t131.5 -12.5q76 0 125 48t49 122t-37.5 118t-109.5 50l6 14q172 23 289 116t164 263v105q0 35 -35 35h-121q-14 0 -23.5 -10.5t-9.5 -24.5v-58q-37 -129 -130 -195.5t-226 -66.5q-172 0 -266 123t-94 340v256q0 217 94 338t268 121 q61 0 118.5 -19.5t105.5 -56.5t85 -89t56 -116v-57q0 -14 8 -24.5t24 -10.5h105q14 0 23.5 10.5t9.5 24.5v455q0 14 -9.5 24t-23.5 10h-31q-10 0 -21.5 -7t-13.5 -19q-10 -49 -24 -98q-66 66 -172.5 103.5t-245.5 37.5q-129 0 -231.5 -44t-173 -125t-107.5 -195.5 t-37 -258.5v-264z" />
<glyph unicode="&#xc8;" horiz-adv-x="1177" d="M33 25q0 -14 9 -24.5t24 -10.5h997q14 0 23.5 10.5t9.5 24.5v413q0 33 -33 33h-47q-10 0 -20.5 -8t-12.5 -19q-14 -76 -27.5 -147.5t-25.5 -144.5h-535v514h312l53 -156q4 -6 11 -13.5t20 -7.5h30q12 0 22.5 8.5t10.5 24.5v439q0 14 -9 24t-24 10h-30q-23 0 -31 -22 l-53 -148q-78 0 -156 1t-156 1v482h529l53 -277q4 -10 14 -19t21 -9h43q16 0 24 10t8 24v398q0 14 -8 24t-24 10h-989q-14 0 -23.5 -10t-9.5 -24v-33q0 -25 20 -33q41 -12 80 -25.5t78 -25.5v-1176l-158 -53q-20 -8 -20 -33v-32zM347 1812.5q-7 -20.5 5 -36.5l221 -273 q12 -12 25 -12h115q23 0 31.5 17.5t-3.5 35.5l-184 275q-4 4 -12 9t-15 5h-151q-25 0 -32 -20.5z" />
<glyph unicode="&#xc9;" horiz-adv-x="1177" d="M33 25q0 -14 9 -24.5t24 -10.5h997q14 0 23.5 10.5t9.5 24.5v413q0 33 -33 33h-47q-10 0 -20.5 -8t-12.5 -19q-14 -76 -27.5 -147.5t-25.5 -144.5h-535v514h312l53 -156q4 -6 11 -13.5t20 -7.5h30q12 0 22.5 8.5t10.5 24.5v439q0 14 -9 24t-24 10h-30q-23 0 -31 -22 l-53 -148q-78 0 -156 1t-156 1v482h529l53 -277q4 -10 14 -19t21 -9h43q16 0 24 10t8 24v398q0 14 -8 24t-24 10h-989q-14 0 -23.5 -10t-9.5 -24v-33q0 -25 20 -33q41 -12 80 -25.5t78 -25.5v-1176l-158 -53q-20 -8 -20 -33v-32zM427 1508.5q9 -17.5 32 -17.5h112 q14 0 27 12l219 273q14 16 6 36.5t-32 20.5h-150q-6 0 -15.5 -4t-13.5 -10l-182 -275q-12 -18 -3 -35.5z" />
<glyph unicode="&#xca;" horiz-adv-x="1177" d="M33 25q0 -14 9 -24.5t24 -10.5h997q14 0 23.5 10.5t9.5 24.5v413q0 33 -33 33h-47q-10 0 -20.5 -8t-12.5 -19q-14 -76 -27.5 -147.5t-25.5 -144.5h-535v514h312l53 -156q4 -6 11 -13.5t20 -7.5h30q12 0 22.5 8.5t10.5 24.5v439q0 14 -9 24t-24 10h-30q-23 0 -31 -22 l-53 -148q-78 0 -156 1t-156 1v482h529l53 -277q4 -10 14 -19t21 -9h43q16 0 24 10t8 24v398q0 14 -8 24t-24 10h-989q-14 0 -23.5 -10t-9.5 -24v-33q0 -25 20 -33q41 -12 80 -25.5t78 -25.5v-1176l-158 -53q-20 -8 -20 -33v-32zM298 1508.5q9 -17.5 32 -17.5h119q8 0 16 5 t12 9q29 39 54.5 78t54.5 80l108 -158q4 -4 11.5 -9t15.5 -5h119q23 0 31.5 17.5t-3.5 35.5l-192 275q-4 4 -12.5 9t-14.5 5h-127q-8 0 -16 -5t-12 -9l-193 -275q-12 -18 -3 -35.5z" />
<glyph unicode="&#xcb;" horiz-adv-x="1177" d="M33 25q0 -14 9 -24.5t24 -10.5h997q14 0 23.5 10.5t9.5 24.5v413q0 33 -33 33h-47q-10 0 -20.5 -8t-12.5 -19q-14 -76 -27.5 -147.5t-25.5 -144.5h-535v514h312l53 -156q4 -6 11 -13.5t20 -7.5h30q12 0 22.5 8.5t10.5 24.5v439q0 14 -9 24t-24 10h-30q-23 0 -31 -22 l-53 -148q-78 0 -156 1t-156 1v482h529l53 -277q4 -10 14 -19t21 -9h43q16 0 24 10t8 24v398q0 14 -8 24t-24 10h-989q-14 0 -23.5 -10t-9.5 -24v-33q0 -25 20 -33q41 -12 80 -25.5t78 -25.5v-1176l-158 -53q-20 -8 -20 -33v-32zM309 1647q0 -45 30 -74t75 -29q47 0 76.5 29 t29.5 74q0 47 -29.5 75.5t-76.5 28.5q-45 0 -75 -28.5t-30 -75.5zM649 1647q0 -45 32 -74t75 -29q45 0 74.5 29t29.5 74q0 47 -29.5 75.5t-74.5 28.5t-76 -28.5t-31 -75.5z" />
<glyph unicode="&#xcc;" horiz-adv-x="567" d="M14 25q0 -35 35 -35h471q35 0 35 35v92q0 35 -35 35h-143v1157h143q35 0 35 34v93q0 35 -35 34h-471q-35 0 -35 -34v-93q0 -35 35 -34h144v-1157h-144q-35 0 -35 -35v-92zM55 1812.5q-8 -20.5 6 -36.5l220 -273q12 -12 26 -12h115q20 0 29.5 17.5t-2.5 35.5l-185 275 q-4 4 -12 9t-14 5h-152q-23 0 -31 -20.5z" />
<glyph unicode="&#xcd;" horiz-adv-x="567" d="M14 25q0 -35 35 -35h471q35 0 35 35v92q0 35 -35 35h-143v1157h143q35 0 35 34v93q0 35 -35 34h-471q-35 0 -35 -34v-93q0 -35 35 -34h144v-1157h-144q-35 0 -35 -35v-92zM134 1509.5q9 -18.5 32 -18.5h113q14 0 26 12l219 273q14 16 6 36.5t-32 20.5h-150q-6 0 -15 -4 t-14 -10l-182 -275q-12 -16 -3 -34.5z" />
<glyph unicode="&#xce;" horiz-adv-x="567" d="M7 1508.5q9 -17.5 30 -17.5h119q8 0 16 5t12 9q29 39 54.5 78t54.5 80l108 -158q4 -4 12.5 -9t16.5 -5h119q20 0 29 17.5t-3 35.5l-190 275q-4 4 -12 9t-17 5h-127q-8 0 -16 -5t-12 -9l-191 -275q-12 -18 -3 -35.5zM14 25q0 -35 35 -35h471q35 0 35 35v92q0 35 -35 35 h-143v1157h143q35 0 35 34v93q0 35 -35 34h-471q-35 0 -35 -34v-93q0 -35 35 -34h144v-1157h-144q-35 0 -35 -35v-92z" />
<glyph unicode="&#xcf;" horiz-adv-x="567" d="M14 25q0 -35 35 -35h471q35 0 35 35v92q0 35 -35 35h-143v1157h143q35 0 35 34v93q0 35 -35 34h-471q-35 0 -35 -34v-93q0 -35 35 -34h144v-1157h-144q-35 0 -35 -35v-92zM16 1647q0 -45 32 -74t75 -29q45 0 74.5 29t29.5 74q0 47 -29.5 75.5t-74.5 28.5t-76 -28.5 t-31 -75.5zM358 1647q0 -45 30 -74t75 -29q43 0 74.5 29t31.5 74q0 47 -30.5 75.5t-75.5 28.5t-75 -28.5t-30 -75.5z" />
<glyph unicode="&#xd0;" horiz-adv-x="1308" d="M23 25q0 -14 9 -24.5t23 -10.5h553q303 0 456 155.5t153 460.5v254q0 291 -151 450.5t-431 159.5h-580q-14 0 -23 -10t-9 -24v-93q0 -33 32 -32q35 0 73 1t73 1v-451h-144q-14 0 -23 -10t-9 -25v-86q0 -14 9 -24t23 -10h144v-555h-146q-14 0 -23 -10.5t-9 -24.5v-92z M385 152v555h307q16 0 24.5 10t8.5 24v86q0 14 -8 24.5t-25 10.5h-307v447h236q193 0 298 -117t105 -326v-260q0 -219 -108.5 -336.5t-315.5 -117.5h-215z" />
<glyph unicode="&#xd1;" horiz-adv-x="1386" d="M45 25q0 -35 35 -35h471q16 0 24.5 10t8.5 25v32q0 27 -23 33q-37 10 -78 23.5t-80 27.5v1039l615 -1174q12 -16 31 -16h153q35 0 35 35v1296l137 49q8 4 15.5 13.5t7.5 19.5v33q0 35 -35 34h-451q-35 0 -34 -34v-33q0 -25 22 -33q39 -12 79 -25.5t79 -25.5v-1006 q-37 72 -69 134.5t-63.5 122t-64.5 120t-69 127.5q-84 154 -166 311.5t-164 323.5q-4 4 -12.5 11t-18.5 7h-350q-35 0 -35 -34v-33q0 -25 23 -33q39 -12 77.5 -25.5t77.5 -25.5v-1176l-155 -53q-8 -4 -15.5 -13t-7.5 -20v-32zM383 1571q-2 -14 8 -25.5t27 -11.5h78 q18 0 24 12.5t11.5 27.5t12.5 28.5t27 13.5q16 0 42 -10.5t71 -30.5q88 -45 152 -45q84 0 129 56.5t55 162.5l-29 31h-84q-20 0 -26.5 -12.5t-10.5 -28t-10 -27.5t-26 -12q-23 0 -53.5 11t-47.5 22q-59 31 -97 41t-67 10q-86 0 -132 -55.5t-54 -157.5z" />
<glyph unicode="&#xd2;" horiz-adv-x="1363" d="M90 606q0 -147 37 -264t107.5 -200t172 -127t232.5 -44h86q131 0 233.5 44t173 127t107.5 200t37 264v248q0 145 -37 263t-107.5 200t-173 126t-233.5 44h-86q-131 0 -232.5 -44t-172 -126t-107.5 -200t-37 -263v-248zM283 610v240q0 229 93 353t271 124h70 q180 0 273 -124t93 -353v-240q0 -229 -93 -353t-273 -124h-70q-178 0 -271 124t-93 353zM464 1812.5q-7 -20.5 5 -36.5l221 -273q12 -12 25 -12h116q20 0 29.5 17.5t-2.5 35.5l-184 275q-4 4 -12.5 9t-14.5 5h-151q-25 0 -32 -20.5z" />
<glyph unicode="&#xd3;" horiz-adv-x="1363" d="M90 606q0 -147 37 -264t107.5 -200t172 -127t232.5 -44h86q131 0 233.5 44t173 127t107.5 200t37 264v248q0 145 -37 263t-107.5 200t-173 126t-233.5 44h-86q-131 0 -232.5 -44t-172 -126t-107.5 -200t-37 -263v-248zM283 610v240q0 229 93 353t271 124h70 q180 0 273 -124t93 -353v-240q0 -229 -93 -353t-273 -124h-70q-178 0 -271 124t-93 353zM544 1508.5q9 -17.5 31 -17.5h113q14 0 27 12l219 273q14 16 6 36.5t-33 20.5h-149q-6 0 -15.5 -4t-13.5 -10l-182 -275q-12 -18 -3 -35.5z" />
<glyph unicode="&#xd4;" horiz-adv-x="1363" d="M90 606q0 -147 37 -264t107.5 -200t172 -127t232.5 -44h86q131 0 233.5 44t173 127t107.5 200t37 264v248q0 145 -37 263t-107.5 200t-173 126t-233.5 44h-86q-131 0 -232.5 -44t-172 -126t-107.5 -200t-37 -263v-248zM283 610v240q0 229 93 353t271 124h70 q180 0 273 -124t93 -353v-240q0 -229 -93 -353t-273 -124h-70q-178 0 -271 124t-93 353zM415 1508.5q9 -17.5 31 -17.5h119q8 0 16.5 5t12.5 9q29 39 54.5 78t53.5 80l109 -158q4 -4 11 -9t16 -5h118q23 0 32 17.5t-3 35.5l-192 275q-4 4 -11.5 9t-15.5 5h-127 q-8 0 -16.5 -5t-12.5 -9l-192 -275q-12 -18 -3 -35.5z" />
<glyph unicode="&#xd5;" horiz-adv-x="1363" d="M90 606q0 -147 37 -264t107.5 -200t172 -127t232.5 -44h86q131 0 233.5 44t173 127t107.5 200t37 264v248q0 145 -37 263t-107.5 200t-173 126t-233.5 44h-86q-131 0 -232.5 -44t-172 -126t-107.5 -200t-37 -263v-248zM283 610v240q0 229 93 353t271 124h70 q180 0 273 -124t93 -353v-240q0 -229 -93 -353t-273 -124h-70q-178 0 -271 124t-93 353zM385 1571q-2 -14 8 -25.5t25 -11.5h78q20 0 27 12.5t11.5 27.5t11.5 28.5t25 13.5q16 0 43 -10.5t70 -30.5q88 -45 152 -45q86 0 131 56.5t53 162.5l-29 31h-84q-20 0 -26.5 -12.5 t-9.5 -28t-10 -27.5t-27 -12q-33 0 -105 35q-57 29 -94 39t-66 10q-84 0 -130 -55.5t-54 -157.5z" />
<glyph unicode="&#xd6;" horiz-adv-x="1363" d="M90 606q0 -147 37 -264t107.5 -200t172 -127t232.5 -44h86q131 0 233.5 44t173 127t107.5 200t37 264v248q0 145 -37 263t-107.5 200t-173 126t-233.5 44h-86q-131 0 -232.5 -44t-172 -126t-107.5 -200t-37 -263v-248zM283 610v240q0 229 93 353t271 124h70 q180 0 273 -124t93 -353v-240q0 -229 -93 -353t-273 -124h-70q-178 0 -271 124t-93 353zM426 1647q0 -45 29.5 -74t76.5 -29q45 0 75 29t30 74q0 47 -29.5 75.5t-75.5 28.5q-47 0 -76.5 -28.5t-29.5 -75.5zM766 1647q0 -45 31.5 -74t74.5 -29q45 0 75 29t30 74 q0 47 -29.5 75.5t-75.5 28.5q-45 0 -75.5 -28.5t-30.5 -75.5z" />
<glyph unicode="&#xd7;" horiz-adv-x="1267" d="M135 941q-4 -15 8 -28l371 -368l-371 -369q-20 -25 0 -47l74 -74q23 -20 47 0l369 371l368 -371q23 -20 48 0l73 74q20 23 0 47l-370 369l368 368q14 12 10 26.5t-17 31t-31.5 32t-32.5 31.5q-25 20 -48 0l-368 -370l-369 370q-25 20 -47 0q-14 -16 -32.5 -31.5t-32 -31 t-17.5 -30.5z" />
<glyph unicode="&#xd8;" horiz-adv-x="1363" d="M69 30.5q3 -12.5 13 -22.5l51 -43q10 -10 25.5 -8t23.5 14q27 35 48.5 65t48.5 62q66 -59 157.5 -93t202.5 -34h86q131 0 233.5 44t173 127t107.5 200t37 264v248q0 129 -24.5 230.5t-80.5 179.5l113 143q10 14 5 27.5t-16 24.5t-25.5 20.5t-20.5 15.5q-10 10 -25.5 9 t-23.5 -15l-95 -121q-68 66 -155.5 92.5t-202.5 26.5h-86q-131 0 -232.5 -44t-172 -126t-107.5 -200t-37 -263v-248q0 -129 23.5 -228t76.5 -177l-114 -148q-10 -10 -7 -22.5zM283 610v240q0 229 93 353t271 124h68l254 -106q-162 -217 -326 -427t-326 -425q-35 100 -34 241 zM385 238q166 217 331 430t331 430q18 -47 27 -107.5t9 -140.5v-240q0 -229 -93 -353t-273 -124h-70q-168 0 -262 105z" />
<glyph unicode="&#xd9;" horiz-adv-x="1292" d="M47 1403q0 -8 4 -18.5t15 -14.5q29 -10 62.5 -24.5t61.5 -24.5v-872q0 -236 115 -357t338 -121h86q219 0 337 123t118 352v877l123 47q10 4 14 14.5t4 18.5v33q0 14 -8 24t-25 10h-452q-14 0 -23.5 -10t-9.5 -24v-33q0 -10 7 -19.5t17 -13.5q41 -12 83 -25.5t85 -25.5 v-870q0 -315 -282 -316h-66q-135 0 -205.5 80t-70.5 233v871l168 53q8 4 15 13.5t7 19.5v33q0 14 -9 24t-24 10h-452q-16 0 -24.5 -10t-8.5 -24v-33zM420 1812.5q-8 -20.5 6 -36.5l221 -273q4 -6 12.5 -9t12.5 -3h114q23 0 32 17.5t-3 35.5l-184 275q-4 4 -12.5 9t-16.5 5 h-149q-25 0 -33 -20.5z" />
<glyph unicode="&#xda;" horiz-adv-x="1292" d="M47 1403q0 -8 4 -18.5t15 -14.5q29 -10 62.5 -24.5t61.5 -24.5v-872q0 -236 115 -357t338 -121h86q219 0 337 123t118 352v877l123 47q10 4 14 14.5t4 18.5v33q0 14 -8 24t-25 10h-452q-14 0 -23.5 -10t-9.5 -24v-33q0 -10 7 -19.5t17 -13.5q41 -12 83 -25.5t85 -25.5 v-870q0 -315 -282 -316h-66q-135 0 -205.5 80t-70.5 233v871l168 53q8 4 15 13.5t7 19.5v33q0 14 -9 24t-24 10h-452q-16 0 -24.5 -10t-8.5 -24v-33zM501 1508.5q9 -17.5 31 -17.5h113q12 0 25 12l221 273q12 16 5 36.5t-32 20.5h-149q-6 0 -15.5 -4t-13.5 -10l-182 -275 q-12 -18 -3 -35.5z" />
<glyph unicode="&#xdb;" horiz-adv-x="1292" d="M47 1403q0 -8 4 -18.5t15 -14.5q29 -10 62.5 -24.5t61.5 -24.5v-872q0 -236 115 -357t338 -121h86q219 0 337 123t118 352v877l123 47q10 4 14 14.5t4 18.5v33q0 14 -8 24t-25 10h-452q-14 0 -23.5 -10t-9.5 -24v-33q0 -10 7 -19.5t17 -13.5q41 -12 83 -25.5t85 -25.5 v-870q0 -315 -282 -316h-66q-135 0 -205.5 80t-70.5 233v871l168 53q8 4 15 13.5t7 19.5v33q0 14 -9 24t-24 10h-452q-16 0 -24.5 -10t-8.5 -24v-33zM372 1508.5q9 -17.5 31 -17.5h119q8 0 15.5 5t11.5 9q29 39 55.5 78t52.5 80l111 -158q4 -4 12 -9t15 -5h118q23 0 32 17.5 t-3 35.5l-192 275q-4 4 -12.5 9t-16.5 5h-125q-8 0 -16.5 -5t-12.5 -9l-192 -275q-12 -18 -3 -35.5z" />
<glyph unicode="&#xdc;" horiz-adv-x="1292" d="M27 1403q0 -8 4 -18.5t14 -14.5q29 -10 62.5 -24.5t62.5 -24.5v-872q0 -236 114.5 -357t338.5 -121h86q219 0 336.5 123t117.5 352v877l123 47q10 4 14.5 14.5t4.5 18.5v33q0 14 -8.5 24t-24.5 10h-453q-14 0 -23.5 -10t-9.5 -24v-33q0 -10 7.5 -19.5t17.5 -13.5 q41 -12 83 -25.5t85 -25.5v-870q0 -315 -283 -316h-65q-135 0 -206 80t-71 233v871l168 53q8 4 15.5 13.5t7.5 19.5v33q0 14 -9.5 24t-23.5 10h-453q-16 0 -24 -10t-8 -24v-33zM383 1647q0 -45 29.5 -74t74.5 -29t75 29t30 74q0 47 -30 75.5t-75 28.5t-74.5 -28.5 t-29.5 -75.5zM723 1647q0 -45 29.5 -74t74.5 -29q43 0 75 29t32 74q0 47 -31 75.5t-76 28.5t-74.5 -28.5t-29.5 -75.5z" />
<glyph unicode="&#xdd;" horiz-adv-x="1224" d="M-10 1343q0 -35 35 -34h102q102 -174 198.5 -342t196.5 -342v-473h-166q-14 0 -23 -10.5t-9 -24.5v-92q0 -14 9 -24.5t23 -10.5h518q14 0 23.5 10t9.5 25v92q0 14 -9 24.5t-24 10.5h-165v477q98 174 196.5 340t196.5 340h100q35 -1 35 34v93q0 35 -35 34h-422 q-16 0 -24 -10t-8 -24v-93q0 -14 8 -24t24 -10h119q-74 -131 -142.5 -248t-142.5 -246q-74 129 -140 248t-138 246h127q35 0 35 34v93q0 35 -35 34h-438q-35 0 -35 -34v-93zM460 1509.5q9 -18.5 32 -18.5h112q14 0 27 12l219 273q14 16 6 36.5t-33 20.5h-149q-6 0 -15.5 -4 t-13.5 -10l-182 -275q-12 -16 -3 -34.5z" />
<glyph unicode="&#xde;" horiz-adv-x="1083" d="M20 1343q0 -14 8.5 -24t24.5 -10h148v-1157h-146q-16 0 -24 -10.5t-8 -24.5v-92q0 -14 8 -24.5t24 -10.5h506q14 0 23.5 10t9.5 25v92q0 14 -9.5 24.5t-23.5 10.5h-176v186h264q207 0 312.5 96t105.5 291v92q0 190 -107.5 285.5t-314.5 95.5h-260v111h174q16 0 24.5 10 t8.5 24v93q0 14 -8.5 24t-24.5 10h-506q-16 0 -24.5 -10t-8.5 -24v-93zM385 500v538h240q133 0 192.5 -54t59.5 -175v-80q0 -229 -248 -229h-244z" />
<glyph unicode="&#xdf;" d="M14 25q0 -35 35 -35h365q35 0 35 35v32q0 10 -7.5 18.5t-13.5 12.5l-106 51v936q0 76 15 125t42 78t63.5 40t79.5 11q86 0 139.5 -42t53.5 -144v-84q0 -96 -50.5 -146.5t-148.5 -50.5h-22q-35 0 -35 -35v-96q0 -35 35 -35h26q229 0 230 -229v-98q0 -102 -43 -160.5 t-136 -58.5h-75q-35 0 -35 -35v-90q0 -35 35 -35h102q82 0 145.5 27.5t104.5 75.5t62.5 113.5t21.5 143.5v111q0 121 -41 200.5t-133 118.5q70 37 103.5 105.5t33.5 158.5v101q0 342 -377 342q-178 0 -278.5 -92t-100.5 -312v-946l-104 -51q-6 -4 -13.5 -12t-7.5 -19v-30z " />
<glyph unicode="&#xe0;" d="M61 295q0 -147 75 -236.5t222 -89.5q100 0 178 25.5t138 83.5q0 -10 -2 -24.5t0 -29t9 -24.5t26 -10h239q16 0 24.5 10.5t8.5 24.5v30q0 8 -4 18.5t-14 14.5q-29 10 -58 23.5t-55 25.5v692q0 176 -84 268.5t-252 92.5h-76q-164 0 -253 -78t-89 -225v-35q0 -35 35 -35h111 q14 0 23 10.5t9 24.5v22q0 158 170 158h56q86 0 127 -51t41 -174v-109h-228q-377 0 -377 -336v-67zM244 305v39q0 98 53 148.5t184 50.5q59 0 107.5 -2t77.5 -6v-113q-8 -59 -30 -112.5t-56.5 -93.5t-81.5 -63.5t-107 -23.5q-72 0 -109.5 50t-37.5 126zM261 1539.5 q-9 -19.5 5 -36.5l219 -274q12 -12 27 -12h115q23 0 32.5 17.5t-4.5 37.5l-184 272q-4 4 -12 9.5t-17 5.5h-149q-23 0 -32 -19.5z" />
<glyph unicode="&#xe1;" d="M61 295q0 -147 75 -236.5t222 -89.5q100 0 178 25.5t138 83.5q0 -10 -2 -24.5t0 -29t9 -24.5t26 -10h239q16 0 24.5 10.5t8.5 24.5v30q0 8 -4 18.5t-14 14.5q-29 10 -58 23.5t-55 25.5v692q0 176 -84 268.5t-252 92.5h-76q-164 0 -253 -78t-89 -225v-35q0 -35 35 -35h111 q14 0 23 10.5t9 24.5v22q0 158 170 158h56q86 0 127 -51t41 -174v-109h-228q-377 0 -377 -336v-67zM244 305v39q0 98 53 148.5t184 50.5q59 0 107.5 -2t77.5 -6v-113q-8 -59 -30 -112.5t-56.5 -93.5t-81.5 -63.5t-107 -23.5q-72 0 -109.5 50t-37.5 126zM338 1234.5 q10 -17.5 33 -17.5h112q12 0 25 12l221 274q12 16 5 36t-32 20h-151q-4 0 -13.5 -4.5t-13.5 -10.5l-182 -272q-14 -20 -4 -37.5z" />
<glyph unicode="&#xe2;" d="M61 295q0 -147 75 -236.5t222 -89.5q100 0 178 25.5t138 83.5q0 -10 -2 -24.5t0 -29t9 -24.5t26 -10h239q16 0 24.5 10.5t8.5 24.5v30q0 8 -4 18.5t-14 14.5q-29 10 -58 23.5t-55 25.5v692q0 176 -84 268.5t-252 92.5h-76q-164 0 -253 -78t-89 -225v-35q0 -35 35 -35h111 q14 0 23 10.5t9 24.5v22q0 158 170 158h56q86 0 127 -51t41 -174v-109h-228q-377 0 -377 -336v-67zM209 1234.5q10 -17.5 33 -17.5h118q8 0 15.5 5t11.5 9q29 39 54.5 78t54.5 80l108 -158q4 -4 12.5 -9t16.5 -5h119q23 0 32.5 17.5t-4.5 37.5l-192 272q-4 4 -12.5 9.5 t-16.5 5.5h-127q-6 0 -14 -5.5t-12 -9.5l-193 -272q-14 -20 -4 -37.5zM244 305v39q0 98 53 148.5t184 50.5q59 0 107.5 -2t77.5 -6v-113q-8 -59 -30 -112.5t-56.5 -93.5t-81.5 -63.5t-107 -23.5q-72 0 -109.5 50t-37.5 126z" />
<glyph unicode="&#xe3;" d="M61 295q0 -147 75 -236.5t222 -89.5q100 0 178 25.5t138 83.5q0 -10 -2 -24.5t0 -29t9 -24.5t26 -10h239q16 0 24.5 10.5t8.5 24.5v30q0 8 -4 18.5t-14 14.5q-29 10 -58 23.5t-55 25.5v692q0 127 -44 211t-132 121q63 12 99 67.5t44 147.5l-29 33h-84q-20 0 -26 -13.5 t-10 -28.5t-10.5 -27.5t-26.5 -12.5q-35 0 -105 35q-59 29 -95 40t-64 11q-86 0 -132.5 -55t-52.5 -160q0 -14 8.5 -25.5t24.5 -11.5h78q18 0 24.5 12.5t11.5 28t12 28.5t28 13q29 0 69.5 -19.5t69.5 -33.5h-70q-164 0 -253 -78t-89 -225v-35q0 -35 35 -35h111q14 0 23 10.5 t9 24.5v22q0 158 170 158h56q86 0 127 -51t41 -174v-109h-228q-377 0 -377 -336v-67zM244 305v39q0 98 53 148.5t184 50.5q59 0 107.5 -2t77.5 -6v-113q-8 -59 -30 -112.5t-56.5 -93.5t-81.5 -63.5t-107 -23.5q-72 0 -109.5 50t-37.5 126z" />
<glyph unicode="&#xe4;" d="M61 295q0 -147 75 -236.5t222 -89.5q100 0 178 25.5t138 83.5q0 -10 -2 -24.5t0 -29t9 -24.5t26 -10h239q16 0 24.5 10.5t8.5 24.5v30q0 8 -4 18.5t-14 14.5q-29 10 -58 23.5t-55 25.5v692q0 176 -84 268.5t-252 92.5h-76q-164 0 -253 -78t-89 -225v-35q0 -35 35 -35h111 q14 0 23 10.5t9 24.5v22q0 158 170 158h56q86 0 127 -51t41 -174v-109h-228q-377 0 -377 -336v-67zM221 1296q0 -45 30 -74.5t75 -29.5t75.5 29.5t30.5 74.5t-31.5 74t-74.5 29q-45 0 -75 -29t-30 -74zM244 305v39q0 98 53 148.5t184 50.5q59 0 107.5 -2t77.5 -6v-113 q-8 -59 -30 -112.5t-56.5 -93.5t-81.5 -63.5t-107 -23.5q-72 0 -109.5 50t-37.5 126zM561 1296q0 -45 30 -74.5t77 -29.5q45 0 74.5 29.5t29.5 74.5t-29.5 74t-74.5 29q-47 0 -77 -29t-30 -74z" />
<glyph unicode="&#xe5;" d="M61 295q0 -147 75 -236.5t222 -89.5q100 0 178 25.5t138 83.5q0 -10 -2 -24.5t0 -29t9 -24.5t26 -10h239q16 0 24.5 10.5t8.5 24.5v30q0 8 -4 18.5t-14 14.5q-29 10 -58 23.5t-55 25.5v692q0 268 -195 340q45 55 45 129q0 43 -16 81t-44 66t-65.5 44t-80.5 16t-81 -16 t-66 -44t-44 -66t-16 -81q0 -35 10 -64.5t27 -55.5q-106 -25 -167 -99.5t-61 -191.5v-35q0 -35 35 -35h111q14 0 23 10.5t9 24.5v22q0 158 170 158h56q86 0 127 -51t41 -174v-109h-228q-377 0 -377 -336v-67zM244 305v39q0 98 53 148.5t184 50.5q74 0 115 -5.5t70 -15.5 v-100q-8 -59 -30 -112.5t-56.5 -93.5t-81.5 -63.5t-107 -23.5q-72 0 -109.5 50t-37.5 126zM424 1298q0 29 19.5 48.5t48.5 19.5t48 -19.5t19 -48.5t-19.5 -47t-47.5 -18q-29 0 -48.5 18.5t-19.5 46.5z" />
<glyph unicode="&#xe6;" horiz-adv-x="1474" d="M70 295q0 -147 76.5 -236.5t230.5 -89.5q129 0 213 36t129 122q43 -86 115.5 -122t158.5 -36h90q61 0 115.5 24.5t95.5 73t65.5 119t24.5 162.5v27q0 16 -10 24.5t-22 8.5h-103q-12 0 -22 -8.5t-10 -24.5v-19q0 -100 -41 -163.5t-113 -63.5h-70q-88 0 -133 96.5 t-45 278.5v14h547q29 0 33 33l6 104q2 16 2 33v33q0 215 -84 342t-240 127h-78q-92 0 -152.5 -33t-94.5 -92q-72 125 -248 125h-76q-158 0 -244 -78t-86 -225v-35q0 -35 35 -35h111q35 0 35 35v22q0 80 40.5 119t112.5 39h55q78 0 114 -51t38 -174q0 -31 1 -61.5t1 -59.5 q-57 4 -105.5 6t-107.5 6q-186 8 -273 -81t-87 -255v-67zM250 305v39q0 98 49 148.5t172 50.5q53 0 99 -7.5t73 -11.5q0 -27 -1 -52.5t-1 -49.5q-8 -61 -27.5 -114.5t-51.5 -93.5t-76 -62.5t-101 -22.5q-68 0 -101.5 49t-33.5 127zM815 676q2 168 47 262t125 94h60 q86 0 130 -83.5t44 -243.5q0 -10 -2 -19l-2 -10h-402z" />
<glyph unicode="&#xe7;" horiz-adv-x="952" d="M86 498q0 -213 89 -352.5t245 -172.5l-39 -75q-2 -6 -2 -17q0 -10 6 -18q10 -14 21.5 -27.5t29.5 -13.5q14 2 27.5 4t30.5 4q20 0 32.5 -10t12.5 -25q0 -35 -33 -35q-47 0 -83 11.5t-40 15.5q-18 10 -30.5 2t-21.5 -24.5t-14.5 -35t-7.5 -24.5q-8 -29 15 -41 q23 -14 86 -26.5t131 -12.5q78 0 126 48t48 122t-38 117t-108 51l4 6h27q61 0 115.5 29t94.5 81t64.5 127t28.5 167l-29 30h-106q-10 0 -20.5 -8t-12.5 -20q-4 -47 -17 -91t-33.5 -79t-48.5 -55.5t-63 -20.5h-75q-109 0 -171.5 102.5t-62.5 278.5v143q0 176 62.5 277.5 t169.5 101.5q106 0 164.5 -54t80.5 -153v-30q0 -14 9.5 -24.5t23.5 -10.5h94q16 0 24.5 10t8.5 25v342q0 14 -8 24t-25 10h-22q-25 0 -33 -26q-4 -16 -9 -31.5t-11 -32.5q-53 51 -125 80t-181 29q-197 0 -299 -141.5t-102 -384.5v-166z" />
<glyph unicode="&#xe8;" horiz-adv-x="976" d="M66 498q0 -252 99 -390.5t302 -138.5h92q139 0 234.5 97.5t115.5 279.5v29q0 16 -10 24.5t-22 8.5h-103q-12 0 -22.5 -8.5t-10.5 -24.5v-17q-10 -98 -60 -163.5t-136 -65.5h-72q-111 0 -170 97.5t-59 277.5v14h647q35 0 35 35v104q0 123 -24.5 221.5t-74 167t-122 106.5 t-168.5 38h-78q-197 0 -295 -143.5t-98 -395.5v-153zM244 676q2 166 61.5 261t159.5 95h59q104 0 162.5 -85t58.5 -245v-26h-501zM276 1518.5q-8 -19.5 7 -35.5l221 -273q12 -12 24 -12h117q20 0 30.5 16.5t-3.5 36.5l-185 275q-12 12 -26 12h-152q-25 0 -33 -19.5z" />
<glyph unicode="&#xe9;" horiz-adv-x="976" d="M66 498q0 -252 99 -390.5t302 -138.5h92q139 0 234.5 97.5t115.5 279.5v29q0 16 -10 24.5t-22 8.5h-103q-12 0 -22.5 -8.5t-10.5 -24.5v-17q-10 -98 -60 -163.5t-136 -65.5h-72q-111 0 -170 97.5t-59 277.5v14h647q35 0 35 35v104q0 123 -24.5 221.5t-74 167t-122 106.5 t-168.5 38h-78q-197 0 -295 -143.5t-98 -395.5v-153zM244 676q2 166 61.5 261t159.5 95h59q104 0 162.5 -85t58.5 -245v-26h-501zM357.5 1214.5q11.5 -16.5 31.5 -16.5h113q14 0 26 12l220 273q14 16 4.5 35.5t-31.5 19.5h-150q-6 0 -15 -3t-13 -9l-183 -275 q-14 -20 -2.5 -36.5z" />
<glyph unicode="&#xea;" horiz-adv-x="976" d="M66 498q0 -252 99 -390.5t302 -138.5h92q139 0 234.5 97.5t115.5 279.5v29q0 16 -10 24.5t-22 8.5h-103q-12 0 -22.5 -8.5t-10.5 -24.5v-17q-10 -98 -60 -163.5t-136 -65.5h-72q-111 0 -170 97.5t-59 277.5v14h647q35 0 35 35v104q0 123 -24.5 221.5t-74 167t-122 106.5 t-168.5 38h-78q-197 0 -295 -143.5t-98 -395.5v-153zM228.5 1214.5q11.5 -16.5 31.5 -16.5h119q8 0 16 5t13 9q29 39 54 78t54 80l109 -158q4 -4 11 -9t15 -5h119q20 0 31.5 16.5t-2.5 36.5l-193 275q-12 12 -26 12h-127q-6 0 -15.5 -3t-13.5 -9l-193 -275 q-14 -20 -2.5 -36.5zM244 676q2 166 61.5 261t159.5 95h59q104 0 162.5 -85t58.5 -245v-26h-501z" />
<glyph unicode="&#xeb;" horiz-adv-x="976" d="M66 498q0 -252 99 -390.5t302 -138.5h92q139 0 234.5 97.5t115.5 279.5v29q0 16 -10 24.5t-22 8.5h-103q-12 0 -22.5 -8.5t-10.5 -24.5v-17q-10 -98 -60 -163.5t-136 -65.5h-72q-111 0 -170 97.5t-59 277.5v14h647q35 0 35 35v104q0 123 -24.5 221.5t-74 167t-122 106.5 t-168.5 38h-78q-197 0 -295 -143.5t-98 -395.5v-153zM240 1276q0 -45 29.5 -75t76.5 -30q45 0 75 30t30 75t-30 73.5t-75 28.5q-47 0 -76.5 -28.5t-29.5 -73.5zM244 676q2 166 61.5 261t159.5 95h59q104 0 162.5 -85t58.5 -245v-26h-501zM580 1276q0 -45 30.5 -75t75.5 -30 t75 30t30 75t-30 73.5t-75 28.5q-43 0 -74.5 -28.5t-31.5 -73.5z" />
<glyph unicode="&#xec;" horiz-adv-x="501" d="M-7 1518.5q-9 -19.5 5 -35.5l219 -273q12 -12 27 -12h114q23 0 32 17.5t-3 35.5l-184 275q-4 6 -13.5 9t-15.5 3h-149q-23 0 -32 -19.5zM4 25q0 -14 9.5 -24.5t23.5 -10.5h416q34 0 34 35v30q0 23 -20 33q-29 10 -62.5 23.5t-64.5 25.5v1000q0 14 -8 24t-25 10h-270 q-14 0 -23.5 -10t-9.5 -24v-31q0 -10 7 -18.5t14 -12.5q35 -14 67.5 -27.5t65.5 -23.5v-887l-133 -51q-6 -4 -13.5 -12t-7.5 -19v-30z" />
<glyph unicode="&#xed;" horiz-adv-x="501" d="M4 25q0 -14 9.5 -24.5t23.5 -10.5h418q14 0 23 10.5t9 24.5v30q0 23 -20 33q-29 10 -62.5 23.5t-62.5 25.5v1000q0 35 -35 34h-270q-14 0 -23.5 -10t-9.5 -24v-31q0 -23 23 -33q33 -12 65.5 -25.5t65.5 -25.5v-885l-131 -49q-8 -4 -15.5 -13t-7.5 -20v-30zM73 1214.5 q9 -16.5 29 -16.5h113q14 0 27 12l221 273q14 16 5 35.5t-32 19.5h-151q-14 0 -27 -12l-182 -275q-12 -20 -3 -36.5z" />
<glyph unicode="&#xee;" horiz-adv-x="501" d="M-57 1214.5q10 -16.5 30 -16.5h119q8 0 16.5 5t12.5 9q29 39 54.5 78t53.5 80l109 -158q4 -4 12 -9t17 -5h118q20 0 30.5 16.5t-3.5 36.5l-190 275q-4 6 -13.5 9t-15.5 3h-127q-6 0 -15.5 -3t-13.5 -9l-190 -275q-14 -20 -4 -36.5zM4 25q0 -14 8 -24.5t25 -10.5h416 q34 0 34 35v30q0 23 -20 33q-29 10 -62.5 23.5t-64.5 25.5v1000q0 14 -9 24t-24 10h-270q-16 0 -24.5 -10t-8.5 -24v-31q0 -23 21 -33q35 -12 67.5 -25.5t65.5 -23.5v-887l-133 -49q-20 -10 -21 -33v-30z" />
<glyph unicode="&#xef;" horiz-adv-x="501" d="M-47 1276q0 -45 30.5 -75t75.5 -30t75 30t30 75t-30 73.5t-75 28.5q-43 0 -74.5 -28.5t-31.5 -73.5zM4 25q0 -14 8 -24.5t25 -10.5h416q34 0 34 35v30q0 23 -20 33q-29 10 -62.5 23.5t-64.5 25.5v1000q0 14 -9 24t-24 10h-270q-16 0 -24.5 -10t-8.5 -24v-31q0 -23 21 -33 q35 -12 67.5 -25.5t65.5 -23.5v-887l-133 -49q-20 -10 -21 -33v-30zM295 1276q0 -45 29.5 -75t74.5 -30t76 30t31 75t-32 73.5t-75 28.5q-45 0 -74.5 -28.5t-29.5 -73.5z" />
<glyph unicode="&#xf0;" horiz-adv-x="1015" d="M63 469q0 -111 28 -203t79 -158.5t125 -103.5t164 -37h106q92 0 165 38t122 107.5t75.5 166t26.5 213.5v161q0 287 -166 473q-23 27 -58.5 61t-82.5 70l156 72q23 12 18.5 30.5t-19 37t-31.5 33t-19 16.5q-6 8 -17.5 11t-21.5 -1q-51 -25 -103.5 -50.5t-105.5 -47.5 q-39 25 -100.5 56.5t-141.5 70.5q-10 4 -20.5 0t-14.5 -8l-57 -54q-14 -14 -12 -33.5t24 -23.5q53 -12 103.5 -27.5t95.5 -35.5l-182 -82q-16 -8 -20.5 -24.5t7.5 -31.5l56 -65q6 -4 17 -7t22 1q66 29 129 57.5t127 56.5q61 -43 100 -88q-43 14 -90 20.5t-92 6.5 q-106 0 -181 -46t-121.5 -119t-68 -164t-21.5 -183v-166zM246 481v144q0 166 61.5 264t169.5 98h66q111 0 170 -97t59 -272v-131q0 -168 -62.5 -264t-170.5 -96h-60q-109 0 -171 96t-62 258z" />
<glyph unicode="&#xf1;" horiz-adv-x="1083" d="M14 1106q0 -10 7.5 -18.5t13.5 -12.5q35 -14 67.5 -27.5t65.5 -23.5v-889l-131 -47q-20 -10 -21 -33v-30q0 -14 8.5 -24.5t24.5 -10.5h408q35 0 35 35v30q0 23 -21 33q-33 10 -61.5 23.5t-61.5 25.5v621q0 123 68.5 198.5t179.5 75.5q150 0 149 -250v-645l-131 -49 q-8 -4 -15 -13t-7 -20v-30q0 -35 35 -35h409q14 0 23.5 10.5t9.5 24.5v30q0 18 -18 33q-35 10 -62.5 23.5t-60.5 25.5v672q0 137 -42 227t-128 127q119 35 131 213l-29 33h-84q-14 0 -23.5 -9t-11.5 -22q-2 -29 -12 -40t-27 -11q-35 0 -104 35q-59 29 -95 40t-65 11 q-86 0 -132 -55t-52 -160q0 -14 8 -25.5t25 -11.5h78q20 0 26 12.5t11.5 28t11.5 28.5t26 13q29 0 72 -20.5t72 -34.5q-66 -4 -127.5 -23.5t-108.5 -58.5v31q0 14 -8 24t-25 10h-268q-16 0 -24.5 -10t-8.5 -24v-31z" />
<glyph unicode="&#xf2;" horiz-adv-x="1015" d="M66 506q0 -123 25.5 -221.5t76.5 -169t124 -108.5t169 -38h98q94 0 169 38t125 108.5t76.5 169t26.5 221.5v149q0 123 -25.5 221.5t-76.5 168t-125 107.5t-170 38h-98q-96 0 -169 -38t-124 -107.5t-76.5 -168t-25.5 -221.5v-149zM248 514v131q0 182 60.5 284.5 t170.5 102.5h62q111 0 172 -102.5t61 -284.5v-131q0 -182 -61.5 -283.5t-171.5 -101.5h-62q-111 0 -171 101.5t-60 283.5zM280 1518.5q-8 -19.5 7 -35.5l219 -273q12 -12 26 -12h115q20 0 30.5 16.5t-3.5 36.5l-185 275q-4 6 -13 9t-13 3h-152q-23 0 -31 -19.5z" />
<glyph unicode="&#xf3;" horiz-adv-x="1015" d="M66 506q0 -123 25.5 -221.5t76.5 -169t124 -108.5t169 -38h98q94 0 169 38t125 108.5t76.5 169t26.5 221.5v149q0 123 -25.5 221.5t-76.5 168t-125 107.5t-170 38h-98q-96 0 -169 -38t-124 -107.5t-76.5 -168t-25.5 -221.5v-149zM248 514v131q0 182 60.5 284.5 t170.5 102.5h62q111 0 172 -102.5t61 -284.5v-131q0 -182 -61.5 -283.5t-171.5 -101.5h-62q-111 0 -171 101.5t-60 283.5zM359.5 1215.5q9.5 -17.5 31.5 -17.5h113q14 0 26 12l220 273q14 16 4.5 35.5t-31.5 19.5h-150q-6 0 -15 -3t-13 -9l-183 -275q-12 -18 -2.5 -35.5z " />
<glyph unicode="&#xf4;" horiz-adv-x="1015" d="M66 506q0 -123 25.5 -221.5t76.5 -169t124 -108.5t169 -38h98q94 0 169 38t125 108.5t76.5 169t26.5 221.5v149q0 123 -25.5 221.5t-76.5 168t-125 107.5t-170 38h-98q-96 0 -169 -38t-124 -107.5t-76.5 -168t-25.5 -221.5v-149zM231.5 1215.5q8.5 -17.5 30.5 -17.5h119 q8 0 16.5 5t12.5 9q29 39 54 78t54 80l109 -158q4 -4 12 -9t16 -5h119q20 0 30.5 16.5t-3.5 36.5l-193 275q-4 6 -13 9t-13 3h-127q-6 0 -15.5 -3t-13.5 -9l-193 -275q-10 -18 -1.5 -35.5zM248 514v131q0 182 60.5 284.5t170.5 102.5h62q111 0 172 -102.5t61 -284.5v-131 q0 -182 -61.5 -283.5t-171.5 -101.5h-62q-111 0 -171 101.5t-60 283.5z" />
<glyph unicode="&#xf5;" horiz-adv-x="1015" d="M66 506q0 -123 25.5 -221.5t76.5 -169t124 -108.5t169 -38h98q94 0 169 38t125 108.5t76.5 169t26.5 221.5v149q0 193 -64.5 325t-186.5 183q117 31 133 213l-31 33h-84q-18 0 -24.5 -13.5t-10.5 -28.5t-11 -27.5t-26 -12.5q-37 0 -106 35q-57 29 -94 40t-66 11 q-84 0 -130 -55t-54 -160q-2 -14 8 -25.5t27 -11.5h75q18 0 25.5 12.5t12.5 28t12.5 28.5t25.5 13q29 0 70 -19.5t69 -33.5h-65q-96 0 -169 -38t-124 -107.5t-76.5 -168t-25.5 -221.5v-149zM248 514v131q0 182 60.5 284.5t170.5 102.5h62q111 0 172 -102.5t61 -284.5v-131 q0 -182 -61.5 -283.5t-171.5 -101.5h-62q-111 0 -171 101.5t-60 283.5z" />
<glyph unicode="&#xf6;" horiz-adv-x="1015" d="M66 506q0 -123 25.5 -221.5t76.5 -169t124 -108.5t169 -38h98q94 0 169 38t125 108.5t76.5 169t26.5 221.5v149q0 123 -25.5 221.5t-76.5 168t-125 107.5t-170 38h-98q-96 0 -169 -38t-124 -107.5t-76.5 -168t-25.5 -221.5v-149zM242 1296q0 -45 30.5 -74.5t75.5 -29.5 t75 29.5t30 74.5t-30 74t-75 29q-43 0 -74.5 -29t-31.5 -74zM248 514v131q0 182 60.5 284.5t170.5 102.5h62q111 0 172 -102.5t61 -284.5v-131q0 -182 -61.5 -283.5t-171.5 -101.5h-62q-111 0 -171 101.5t-60 283.5zM584 1296q0 -45 29.5 -74.5t74.5 -29.5t75 29.5t30 74.5 t-30 74t-75 29t-74.5 -29t-29.5 -74z" />
<glyph unicode="&#xf7;" horiz-adv-x="1267" d="M55 489q0 -14 8.5 -24t24.5 -10h1094q16 0 24 10t8 24v111q0 14 -8 24.5t-24 10.5h-1094q-16 0 -24.5 -10.5t-8.5 -24.5v-111zM535 20q0 -14 8 -24t24 -10h148q14 0 23.5 10t9.5 24v148q0 14 -9.5 24.5t-23.5 10.5h-148q-16 0 -24 -10.5t-8 -24.5v-148zM535 852 q0 -14 8 -24.5t24 -10.5h148q14 0 23.5 10.5t9.5 24.5v147q0 14 -9.5 24.5t-23.5 10.5h-148q-16 0 -24 -10t-8 -25v-147z" />
<glyph unicode="&#xf8;" horiz-adv-x="1015" d="M41 51q-16 -27 6 -45q6 -4 17.5 -16.5t25.5 -21.5t28.5 -12t26.5 13q16 23 33 46.5t33 45.5q92 -92 248 -92h98q94 0 167 38t123 108.5t75.5 169t25.5 221.5v149q0 203 -65 330l90 125q8 10 6 23.5t-12 23.5l-18.5 18.5t-26 21.5t-27.5 10t-27 -13q-18 -25 -34.5 -48.5 t-32.5 -45.5q-92 90 -244 90h-98q-96 0 -169 -38t-123 -107.5t-75.5 -168t-25.5 -221.5v-149q0 -104 16 -184t49 -146zM248 514v131q0 182 59.5 284.5t169.5 102.5h58l155 -86q-109 -145 -216 -293.5t-212 -298.5q-8 35 -11 76t-3 84zM319 207q111 152 217.5 299t217.5 299 q12 -68 12 -160v-131q0 -182 -60.5 -283.5t-168.5 -101.5h-60q-98 0 -158 78z" />
<glyph unicode="&#xf9;" horiz-adv-x="1083" d="M18 1106q0 -20 19 -31q33 -14 60.5 -26.5t58.5 -22.5v-666q0 -188 73.5 -289.5t227.5 -101.5q82 0 155.5 25.5t128.5 73.5v-43q0 -14 8.5 -24.5t24.5 -10.5h260q16 0 24.5 10.5t8.5 24.5v30q0 23 -20 33q-33 10 -64 23.5t-63 25.5v1000q0 35 -35 34h-258q-35 0 -35 -34 v-31q0 -23 20 -33q29 -12 63 -25.5t64 -23.5v-623q0 -59 -18.5 -108t-51 -86t-77.5 -57.5t-96 -20.5q-82 0 -120 59.5t-38 188.5v760q0 35 -35 34h-252q-16 0 -24.5 -10t-8.5 -24v-31zM303 1499.5q-8 -20.5 6 -37.5l219 -272q12 -12 27 -12h115q23 0 31.5 18.5t-3.5 34.5 l-184 274q-4 4 -12 9.5t-17 5.5h-151q-23 0 -31 -20.5z" />
<glyph unicode="&#xfa;" horiz-adv-x="1083" d="M18 1106q0 -20 19 -31q33 -14 60.5 -26.5t58.5 -22.5v-666q0 -188 73.5 -289.5t227.5 -101.5q82 0 155.5 25.5t128.5 73.5v-43q0 -14 8.5 -24.5t24.5 -10.5h260q16 0 24.5 10.5t8.5 24.5v30q0 23 -20 33q-33 10 -64 23.5t-63 25.5v1000q0 35 -35 34h-258q-35 0 -35 -34 v-31q0 -23 20 -33q29 -12 63 -25.5t64 -23.5v-623q0 -59 -18.5 -108t-51 -86t-77.5 -57.5t-96 -20.5q-82 0 -120 59.5t-38 188.5v760q0 35 -35 34h-252q-16 0 -24.5 -10t-8.5 -24v-31zM382 1196.5q9 -18.5 32 -18.5h112q14 0 27 12l219 272q14 16 6 37t-30 21h-152 q-6 0 -15.5 -4.5t-13.5 -10.5l-182 -274q-12 -16 -3 -34.5z" />
<glyph unicode="&#xfb;" horiz-adv-x="1083" d="M18 1106q0 -20 19 -31q33 -14 60.5 -26.5t58.5 -22.5v-666q0 -188 73.5 -289.5t227.5 -101.5q82 0 155.5 25.5t128.5 73.5v-43q0 -14 8.5 -24.5t24.5 -10.5h260q16 0 24.5 10.5t8.5 24.5v30q0 23 -20 33q-33 10 -64 23.5t-63 25.5v1000q0 35 -35 34h-258q-35 0 -35 -34 v-31q0 -23 20 -33q29 -12 63 -25.5t64 -23.5v-623q0 -59 -18.5 -108t-51 -86t-77.5 -57.5t-96 -20.5q-82 0 -120 59.5t-38 188.5v760q0 35 -35 34h-252q-16 0 -24.5 -10t-8.5 -24v-31zM255 1195.5q9 -17.5 30 -17.5h118q8 0 16.5 5t12.5 9q29 39 54.5 78t54.5 80l108 -158 q4 -4 12.5 -9t16.5 -5h119q20 0 29 17.5t-3 35.5l-190 274q-4 4 -12.5 9.5t-16.5 5.5h-127q-8 0 -16 -5.5t-12 -9.5l-191 -274q-12 -18 -3 -35.5z" />
<glyph unicode="&#xfc;" horiz-adv-x="1083" d="M18 1106q0 -20 19 -31q33 -14 60.5 -26.5t58.5 -22.5v-666q0 -188 73.5 -289.5t227.5 -101.5q82 0 155.5 25.5t128.5 73.5v-43q0 -14 8.5 -24.5t24.5 -10.5h260q16 0 24.5 10.5t8.5 24.5v30q0 23 -20 33q-33 10 -64 23.5t-63 25.5v1000q0 35 -35 34h-258q-35 0 -35 -34 v-31q0 -23 20 -33q29 -12 63 -25.5t64 -23.5v-623q0 -59 -18.5 -108t-51 -86t-77.5 -57.5t-96 -20.5q-82 0 -120 59.5t-38 188.5v760q0 35 -35 34h-252q-16 0 -24.5 -10t-8.5 -24v-31zM264 1296q0 -45 31 -74.5t76 -29.5t74.5 29.5t29.5 74.5t-29.5 74t-74.5 29 q-43 0 -75 -29t-32 -74zM606 1296q0 -45 30 -74.5t75 -29.5t75.5 29.5t30.5 74.5t-31.5 74t-74.5 29q-45 0 -75 -29t-30 -74z" />
<glyph unicode="&#xfd;" d="M0 1044q0 -14 10 -23t25 -9h71q80 -246 154 -480.5t152 -480.5q-12 -41 -24.5 -79t-27.5 -76v2q-16 -53 -21 -67.5t-7 -20.5q-4 -12 -6 -17h-117q-35 0 -35 -35v-90q0 -35 35 -35h248q14 0 23 10.5t9 24.5v84l23 53q59 145 109.5 296t96.5 303.5t90 305t91 302.5h57 q14 0 24.5 9t10.5 23v93q0 35 -35 34h-331q-35 0 -35 -34v-93q0 -14 10 -23t25 -9h94q-55 -180 -107.5 -351.5t-107.5 -347.5q-29 94 -55.5 180.5t-52 170.5t-52.5 169t-53 179h96q16 0 24.5 10t8.5 22v74h69q14 0 27 12l219 273q14 16 6 36.5t-32 20.5h-150q-6 0 -15 -4 t-14 -10l-180 -272q-2 0 -2 -3h-2h-311q-35 0 -35 -34v-93z" />
<glyph unicode="&#xfe;" horiz-adv-x="1071" d="M-14 1343q0 -14 10 -23t24 -9h121v-1499h-108q-14 0 -24.5 -9.5t-10.5 -23.5v-92q0 -16 10 -24.5t25 -8.5h405q14 0 24.5 8t10.5 25v92q0 14 -10 23.5t-25 9.5h-114v254q59 -53 136 -75t163 -22q92 0 163.5 38t120.5 107.5t75 167t26 218.5v162q0 119 -25 217t-73 166.5 t-118.5 106.5t-162.5 38q-90 0 -167 -25.5t-138 -79.5v351q0 35 -35 34h-269q-35 0 -34 -34v-93zM315 461v207q0 176 77 270t204 94q109 0 169 -100.5t60 -280.5v-143q0 -180 -61.5 -279.5t-167.5 -99.5q-127 0 -204 90t-77 242z" />
<glyph unicode="&#xff;" d="M0 1044q0 -14 10 -23t25 -9h71q80 -246 154 -480.5t152 -480.5q-12 -41 -24.5 -79t-27.5 -76v2q-16 -53 -21 -67.5t-7 -20.5q-4 -12 -6 -17h-117q-35 0 -35 -35v-90q0 -35 35 -35h248q14 0 23 10.5t9 24.5v84l23 53q59 145 109.5 296t96.5 303.5t90 305t91 302.5h57 q14 0 24.5 9t10.5 23v93q0 35 -35 34h-331q-35 0 -35 -34v-93q0 -14 10 -23t25 -9h94q-55 -180 -107.5 -351.5t-107.5 -347.5q-29 94 -55.5 180.5t-52 170.5t-52.5 169t-53 179h96q16 0 24.5 10t8.5 22v93q0 14 -8.5 24t-24.5 10h-352q-35 0 -35 -34v-93zM227 1276 q0 -45 31 -75t76 -30t74.5 30t29.5 75t-29.5 73.5t-74.5 28.5q-43 0 -75 -28.5t-32 -73.5zM569 1276q0 -45 30 -75t75 -30t74.5 30t29.5 75t-29.5 73.5t-74.5 28.5t-75 -28.5t-30 -73.5z" />
<glyph unicode="&#x152;" horiz-adv-x="1845" d="M96 594q0 -143 37 -258t106.5 -196t169 -125t226.5 -44q76 0 156.5 3t154.5 16h770q14 0 23.5 10.5t9.5 24.5v413q0 33 -33 33h-47q-10 0 -20.5 -8t-12.5 -19q-14 -76 -27.5 -147.5t-25.5 -144.5h-502v514h281l51 -156q4 -6 12.5 -13.5t18.5 -7.5h31q33 0 32 33v439 q0 14 -8 24t-24 10h-31q-23 0 -31 -22q-12 -37 -25.5 -74t-25.5 -74q-72 0 -140.5 1t-140.5 1v482h496l53 -277q4 -10 14.5 -19t20.5 -9h43q16 0 24.5 10t8.5 24v398q0 14 -8.5 24t-24.5 10h-754q-53 6 -126.5 11.5t-155.5 5.5q-287 0 -431.5 -159t-144.5 -466v-268z M289 600v258q0 469 383 469h88q61 0 104 -4t43 -18v-1155q0 -10 -52 -13.5t-124 -3.5h-90q-166 0 -259 122t-93 345z" />
<glyph unicode="&#x153;" horiz-adv-x="1556" d="M76 506q0 -121 21.5 -220.5t66.5 -170t110.5 -108.5t155.5 -38h98q98 0 167 46t110 118q41 -76 113.5 -120t171.5 -44h90q57 0 111.5 24.5t95 73t65.5 119t25 162.5v27q0 16 -10.5 24.5t-24.5 8.5h-101q-14 0 -24 -8.5t-10 -24.5v-19q0 -100 -43 -163.5t-115 -63.5h-72 q-92 0 -139 96.5t-47 278.5v14h555q33 0 33 33l12 104q0 123 -20.5 221.5t-61.5 168t-103.5 107.5t-146.5 38h-80q-90 0 -158.5 -44t-113.5 -122q-35 70 -99.5 118t-166.5 48h-99q-90 0 -158.5 -38t-114.5 -107.5t-69.5 -168t-23.5 -221.5v-149zM256 514v131q0 184 52 285.5 t151 101.5h59q96 0 149.5 -102.5t53.5 -284.5v-131q0 -182 -53.5 -283.5t-149.5 -101.5h-59q-98 0 -150.5 101.5t-52.5 283.5zM891 676q2 168 50 262t130 94h59q86 0 133.5 -83.5t47.5 -243.5q-2 -8 -2 -29h-418z" />
<glyph unicode="&#x178;" horiz-adv-x="1224" d="M-10 1343q0 -35 35 -34h102q102 -174 198.5 -342t196.5 -342v-473h-166q-14 0 -23 -10.5t-9 -24.5v-92q0 -14 9 -24.5t23 -10.5h518q14 0 23.5 10t9.5 25v92q0 14 -9 24.5t-24 10.5h-165v477q98 174 196.5 340t196.5 340h100q35 -1 35 34v93q0 35 -35 34h-422 q-16 0 -24 -10t-8 -24v-93q0 -14 8 -24t24 -10h119q-74 -131 -142.5 -248t-142.5 -246q-74 129 -140 248t-138 246h127q35 0 35 34v93q0 35 -35 34h-438q-35 0 -35 -34v-93zM342 1647q0 -45 32 -74t75 -29q45 0 74.5 29t29.5 74q0 47 -29.5 75.5t-74.5 28.5t-76 -28.5 t-31 -75.5zM684 1647q0 -45 29.5 -74t74.5 -29t75 29t30 74q0 47 -29.5 75.5t-75.5 28.5q-45 0 -74.5 -28.5t-29.5 -75.5z" />
<glyph unicode="&#x2c6;" horiz-adv-x="536" d="M-17 1135.5q9 -17.5 29 -17.5h119q8 0 16.5 5t12.5 10q29 39 54.5 77.5t53.5 79.5l109 -157q4 -4 12 -9.5t17 -5.5h118q20 0 29.5 17.5t-2.5 35.5l-191 275q-4 4 -12 9t-16 5h-127q-8 0 -16.5 -5t-12.5 -9l-190 -275q-12 -18 -3 -35.5z" />
<glyph unicode="&#x2dc;" horiz-adv-x="536" d="M-49 1198q-2 -14 8 -25.5t27 -11.5h75q18 0 25.5 12.5t12.5 28t12.5 28.5t25.5 13q33 0 113 -39q90 -47 153 -47q84 0 129.5 56.5t55.5 162.5l-31 33h-82q-18 0 -25.5 -13.5t-11.5 -28.5t-11 -27.5t-26 -12.5q-35 0 -104 35q-59 29 -95 40t-67 11q-84 0 -130 -55 t-54 -160z" />
<glyph unicode="&#x2000;" horiz-adv-x="923" />
<glyph unicode="&#x2001;" horiz-adv-x="1847" />
<glyph unicode="&#x2002;" horiz-adv-x="923" />
<glyph unicode="&#x2003;" horiz-adv-x="1847" />
<glyph unicode="&#x2004;" horiz-adv-x="615" />
<glyph unicode="&#x2005;" horiz-adv-x="461" />
<glyph unicode="&#x2006;" horiz-adv-x="307" />
<glyph unicode="&#x2007;" horiz-adv-x="307" />
<glyph unicode="&#x2008;" horiz-adv-x="230" />
<glyph unicode="&#x2009;" horiz-adv-x="369" />
<glyph unicode="&#x200a;" horiz-adv-x="102" />
<glyph unicode="&#x2010;" horiz-adv-x="724" d="M74 623q0 -35 35 -35h485q35 0 35 35v94q0 35 -35 35h-485q-35 0 -35 -35v-94z" />
<glyph unicode="&#x2011;" horiz-adv-x="724" d="M74 623q0 -35 35 -35h485q35 0 35 35v94q0 35 -35 35h-485q-35 0 -35 -35v-94z" />
<glyph unicode="&#x2012;" horiz-adv-x="724" d="M74 623q0 -35 35 -35h485q35 0 35 35v94q0 35 -35 35h-485q-35 0 -35 -35v-94z" />
<glyph unicode="&#x2013;" horiz-adv-x="1024" d="M-4 508q0 -14 10 -23.5t25 -9.5h962q14 0 24.5 9.5t10.5 23.5v90q0 35 -35 35h-962q-35 0 -35 -35v-90z" />
<glyph unicode="&#x2014;" horiz-adv-x="1808" d="M10 508q0 -33 33 -33h1722q33 0 33 33v90q0 14 -9 24.5t-24 10.5h-1722q-14 0 -23.5 -10.5t-9.5 -24.5v-90z" />
<glyph unicode="&#x2018;" horiz-adv-x="518" d="M117 1012q0 -35 35 -35h53q63 0 69 -2q45 0 45 88v51q0 35 -34 35h-6l10 -14l100 288q6 16 -3 31.5t-30 15.5h-90q-23 0 -33 -22l-116 -330v-106z" />
<glyph unicode="&#x2019;" horiz-adv-x="518" d="M119 1024q-6 -16 3 -31.5t30 -15.5h90q20 0 32 22l117 330v107q0 35 -35 34h-127q-41 0 -41 -81v-56q0 -31 31 -35z" />
<glyph unicode="&#x201a;" horiz-adv-x="475" d="M80 -236q-6 -18 4 -31.5t29 -13.5h92q23 0 33 21l104 266q4 4 7 11.5t3 11.5v147q0 35 -35 35h-71q-16 0 -34.5 -1t-37.5 -1q-35 0 -35 -35v-145q0 -29 27 -35z" />
<glyph unicode="&#x201c;" horiz-adv-x="821" d="M121 1012q0 -14 8 -24.5t25 -10.5h53q63 0 69 -2q47 0 48 88v51q0 35 -35 35h-8l10 -14l100 288q4 16 -4 31.5t-27 15.5h-92q-23 0 -30 -22l-117 -330v-106zM424 1012q0 -14 8 -24.5t25 -10.5h53q63 0 70 -2q47 0 47 88v51q0 35 -35 35h-8l10 -14l100 288q4 16 -4 31.5 t-26 15.5h-93q-23 0 -30 -22l-117 -330v-106z" />
<glyph unicode="&#x201d;" horiz-adv-x="821" d="M123 1024q-6 -16 3 -31.5t28 -15.5h92q23 0 30 22l117 330v107q0 14 -8 24t-25 10h-127q-43 0 -43 -81v-56q0 -31 33 -35zM426 1024q-4 -16 3 -31.5t28 -15.5h92q23 0 31 22l116 330v107q0 14 -9 24t-23 10h-127q-43 0 -43 -81v-56q0 -31 32 -35z" />
<glyph unicode="&#x201e;" horiz-adv-x="821" d="M86 -236q-6 -18 4 -31.5t29 -13.5h92q23 0 33 21l104 266q4 4 7 11.5t3 11.5v47q12 0 23.5 6t11.5 22v105q0 12 -10 19.5t-23 7.5q-12 0 -23 -6.5t-11 -18.5h-2h-72q-16 0 -34.5 -1t-37.5 -1q-35 0 -35 -35v-145q0 -29 27 -35zM442 -236q-6 -18 4.5 -31.5t28.5 -13.5h92 q23 0 33 21l105 266q4 4 7 11.5t3 11.5v147q0 35 -35 35h-72q-16 0 -34.5 -1t-36.5 -1q-35 0 -35 -35v-145q0 -29 26 -35z" />
<glyph unicode="&#x2022;" horiz-adv-x="821" d="M121 780q0 -59 21.5 -109t58.5 -87t88 -58.5t110 -21.5q57 0 107.5 21.5t88.5 58.5t59.5 87t21.5 109q0 57 -21.5 107.5t-59.5 87.5t-89 58.5t-109 21.5q-59 0 -109 -21.5t-87 -58.5t-58.5 -87t-21.5 -108z" />
<glyph unicode="&#x2026;" horiz-adv-x="2048" d="M270 20q0 -14 8.5 -24t24.5 -10h148q14 0 23 10t9 24v148q0 14 -9 24.5t-23 10.5h-148q-16 0 -24.5 -10.5t-8.5 -24.5v-148zM924 20q0 -14 8 -24t24 -10h148q16 0 24.5 10t8.5 24v148q0 14 -8.5 24.5t-24.5 10.5h-148q-16 0 -24 -10.5t-8 -24.5v-148zM1577 20 q0 -14 9 -24t24 -10h147q16 0 24.5 10t8.5 24v148q0 14 -8 24.5t-25 10.5h-147q-14 0 -23.5 -10.5t-9.5 -24.5v-148z" />
<glyph unicode="&#x202f;" horiz-adv-x="369" />
<glyph unicode="&#x2039;" horiz-adv-x="528" d="M90 524l180 -399q4 -10 14.5 -16.5t22.5 -4.5q4 0 26.5 2.5t45 8.5t38 18t7.5 35q-41 92 -83 184t-83 185l168 372q10 23 -6.5 35t-40 18.5t-46 8.5t-24.5 2q-12 2 -22.5 -4t-14.5 -17l-182 -399q-4 -14 0 -29z" />
<glyph unicode="&#x203a;" horiz-adv-x="528" d="M102 909q45 -92 87 -184t83 -184l-168 -373q-10 -23 6.5 -36t41 -19.5t46.5 -7.5l23 -1q12 -2 22.5 4.5t14.5 16.5l182 399q4 14 0 29l-184 399q-4 10 -14.5 16.5t-22.5 4.5l-23 -1q-22 -1 -46.5 -7.5t-41 -19.5t-6.5 -36z" />
<glyph unicode="&#x205f;" horiz-adv-x="461" />
<glyph unicode="&#x2122;" horiz-adv-x="1902" d="M84 1196q0 -14 8 -24.5t25 -10.5h57q35 0 35 35v150h127v-603h-84q-35 0 -35 -34v-52q0 -35 35 -34h303q16 0 24.5 10t8.5 24v52q0 14 -8.5 24t-24.5 10h-86v603h127v-150q0 -35 35 -35h57q14 0 23.5 10.5t9.5 24.5v240q0 14 -9.5 24t-23.5 10h-571q-16 0 -24.5 -10 t-8.5 -24v-240zM791 1384q0 -14 9 -24t23 -10h68v-607h-66q-14 0 -23 -10t-9 -24v-52q0 -14 9 -24t23 -10h252q35 0 35 34v52q0 35 -35 34h-57v453l178 -494q4 -10 13.5 -17t19.5 -7h55q8 0 17.5 6t13.5 16q43 125 88 248t92 246v-451h-57q-35 0 -35 -34v-52q0 -35 35 -34 h252q16 0 24 10t8 24v52q0 14 -8 24t-24 10h-66v607h66q16 0 24 10t8 24v52q0 14 -8 24t-24 10h-203q-23 0 -31 -22q-20 -57 -44.5 -127t-51.5 -141.5t-53.5 -143t-48.5 -133.5l-197 545q-12 23 -33 22h-207q-14 0 -23 -10t-9 -24v-52z" />
<glyph unicode="&#xe000;" horiz-adv-x="1167" d="M0 0v1167h1167v-1167h-1167z" />
<glyph unicode="&#xe013;" horiz-adv-x="0" />
</font>
</defs>
</svg>
